<svg width="117" height="117" viewBox="0 0 117 117" fill="none" xmlns="http://www.w3.org/2000/svg">
<g filter="url(#filter0_d_2010_13094)">
<circle cx="58.4998" cy="56.9124" r="56.9124" fill="url(#paint0_linear_2010_13094)" fill-opacity="0.2"/>
<circle cx="58.4998" cy="56.9124" r="56.0369" stroke="url(#paint1_linear_2010_13094)" stroke-width="1.75115"/>
</g>
<path fill-rule="evenodd" clip-rule="evenodd" d="M46.412 43.4519L58.4995 31.3644L69.115 41.98L44.9749 66.1201L47.8193 68.9646L57.0301 59.7538L69.118 71.8416L58.4995 82.4602L32.9516 56.9123L43.5676 46.2963L51.8812 54.61L54.7257 51.7656L46.412 43.4519ZM59.8746 56.9093L71.9625 68.9972L84.0473 56.9123L71.9595 44.8244L59.8746 56.9093ZM27.2627 56.9123L30.1072 54.0679L55.655 28.52L58.4995 25.6755L61.3439 28.52L86.8918 54.0679L89.7362 56.9123L86.8918 59.7568L61.3439 85.3046L58.4995 88.1491L55.655 85.3046L30.1072 59.7568L27.2627 56.9123Z" fill="#357EFD"/>
<path fill-rule="evenodd" clip-rule="evenodd" d="M46.412 43.4519L58.4995 31.3644L69.115 41.98L44.9749 66.1201L47.8193 68.9646L57.0301 59.7538L69.118 71.8416L58.4995 82.4602L32.9516 56.9123L43.5676 46.2963L51.8812 54.61L54.7257 51.7656L46.412 43.4519ZM59.8746 56.9093L71.9625 68.9972L84.0473 56.9123L71.9595 44.8244L59.8746 56.9093ZM27.2627 56.9123L30.1072 54.0679L55.655 28.52L58.4995 25.6755L61.3439 28.52L86.8918 54.0679L89.7362 56.9123L86.8918 59.7568L61.3439 85.3046L58.4995 88.1491L55.655 85.3046L30.1072 59.7568L27.2627 56.9123Z" fill="url(#paint2_linear_2010_13094)" fill-opacity="0.2"/>
<defs>
<filter id="filter0_d_2010_13094" x="0.478339" y="0" width="116.043" height="116.043" filterUnits="userSpaceOnUse" color-interpolation-filters="sRGB">
<feFlood flood-opacity="0" result="BackgroundImageFix"/>
<feColorMatrix in="SourceAlpha" type="matrix" values="0 0 0 0 0 0 0 0 0 0 0 0 0 0 0 0 0 0 127 0" result="hardAlpha"/>
<feOffset dy="1.10906"/>
<feGaussianBlur stdDeviation="0.554531"/>
<feColorMatrix type="matrix" values="0 0 0 0 0 0 0 0 0 0 0 0 0 0 0 0 0 0 0.25 0"/>
<feBlend mode="normal" in2="BackgroundImageFix" result="effect1_dropShadow_2010_13094"/>
<feBlend mode="normal" in="SourceGraphic" in2="effect1_dropShadow_2010_13094" result="shape"/>
</filter>
<linearGradient id="paint0_linear_2010_13094" x1="137.302" y1="-80.553" x2="1.5874" y2="222.396" gradientUnits="userSpaceOnUse">
<stop stop-color="white" stop-opacity="0"/>
<stop offset="1"/>
</linearGradient>
<linearGradient id="paint1_linear_2010_13094" x1="20.117" y1="5.25624e-07" x2="90.2649" y2="113.825" gradientUnits="userSpaceOnUse">
<stop stop-color="#0066FF"/>
<stop offset="1" stop-color="white" stop-opacity="0"/>
</linearGradient>
<linearGradient id="paint2_linear_2010_13094" x1="58.4995" y1="25.6755" x2="-6.73086" y2="188.249" gradientUnits="userSpaceOnUse">
<stop stop-color="white"/>
<stop offset="1" stop-opacity="0"/>
</linearGradient>
</defs>
</svg>
