<svg width="40" height="41" viewBox="0 0 40 41" fill="none" xmlns="http://www.w3.org/2000/svg">
<g clip-path="url(#clip0_2694_1742)">
<path d="M28.962 4.02131C27.9324 5.05049 26.9891 6.16596 26.1506 7.35538L25.8855 7.2691C24.3564 6.76991 22.7719 6.46177 21.175 6.357C20.6941 6.32003 18.8999 6.32003 18.3142 6.357C16.5447 6.4741 15.1883 6.7391 13.6469 7.27526C13.5853 7.29991 13.5298 7.3184 13.4743 7.33689C12.6049 6.15363 11.6369 5.04433 10.5703 4.02747C15.6877 1.40829 21.6744 1.09398 27.0322 3.15852C27.6056 3.37422 28.1667 3.62689 28.7154 3.89805L28.962 4.02131Z" fill="#F00500"/>
<path d="M38.5055 27.3967C37.7286 29.6091 36.5634 31.6613 35.0528 33.4485C34.2328 34.4099 33.3265 35.2912 32.3523 36.0924C30.0711 37.9289 27.4076 39.2415 24.5653 39.9318C21.4209 40.6898 18.1408 40.6898 14.9964 39.9318C12.1479 39.2415 9.49059 37.9289 7.20935 36.0924C6.2352 35.2912 5.32887 34.4099 4.50885 33.4485C0.162166 28.3149 -1.15725 21.2647 1.05617 14.9109C1.47542 13.7338 1.99949 12.5998 2.62837 11.5213C2.91815 11.0283 3.27575 10.4736 3.44839 10.2456C4.04028 12.7909 4.7678 15.0279 5.03909 15.8353C5.02059 15.8784 4.99593 15.9277 4.97127 15.9709C3.5347 18.8797 2.75785 21.6838 2.57288 24.6666C2.57288 24.7035 2.56672 24.7467 2.56672 24.7836C2.51739 25.6772 2.54205 26.1025 2.69003 26.6633C3.15244 28.4197 4.57668 30.3548 6.80859 32.2529C10.4647 35.359 15.4218 37.6022 19.1766 37.8611C23.0917 38.1261 28.8688 35.8397 32.7161 32.4995C33.3203 31.9633 33.8875 31.3963 34.4178 30.7924C34.8 30.3486 35.3673 29.5845 35.3241 29.5845C35.3118 29.5845 35.3241 29.5721 35.3488 29.5598C35.3673 29.5475 35.3857 29.529 35.3734 29.5167C35.3673 29.5105 35.3796 29.492 35.3981 29.4859C35.4166 29.4797 35.4289 29.4674 35.4227 29.455C35.4166 29.4427 35.4227 29.4304 35.4474 29.4242C35.4659 29.4181 35.4721 29.3996 35.4659 29.3872C35.4597 29.3749 35.4659 29.3626 35.4782 29.3626C35.4906 29.3626 35.5029 29.3441 35.5029 29.3318C35.5029 29.3195 35.5152 29.301 35.5276 29.301C35.5399 29.301 35.5522 29.2886 35.5522 29.2763C35.5707 29.227 35.6015 29.1777 35.6324 29.1346C35.7249 28.9928 36.0948 28.3334 36.1441 28.2225C36.4955 27.4275 36.7175 26.7188 36.8223 26.01C36.8716 25.6711 36.9025 25.0486 36.8778 24.9007C36.8716 24.8761 36.8716 24.8329 36.8655 24.7652C36.8531 24.6419 36.847 24.457 36.8346 24.2721C36.8223 23.9948 36.7977 23.6066 36.7792 23.4155C36.514 20.6176 35.7988 18.3312 34.4424 15.9092C34.3869 15.8168 34.3376 15.7243 34.3068 15.6504C34.2945 15.6319 34.2883 15.6134 34.2821 15.6011C34.4733 15.028 35.2563 12.6306 35.879 9.88818L35.8913 9.90051L35.9838 10.0238C36.1441 10.2395 36.5695 10.8804 36.7607 11.1885C37.63 12.606 38.3082 14.1282 38.7891 15.7182C39.9051 19.5453 39.8126 23.625 38.5055 27.3967Z" fill="#F00500"/>
<path d="M30.5022 20.0322C30.4837 20.1308 30.1939 20.4266 29.9041 20.6423C29.0533 21.2647 27.5304 21.844 25.9828 22.1214C25.1012 22.2816 24.2195 22.3062 23.9544 22.1768C23.7817 22.0905 23.7571 22.0228 23.8187 21.8009C23.9482 21.3387 24.3675 20.8333 25.021 20.3588C25.354 20.1185 26.7042 19.2988 27.3331 18.9537C28.3689 18.3867 29.2074 18.0478 29.7746 17.9676C29.9534 17.943 30.1692 17.9368 30.237 17.9676C30.348 18.0108 30.4713 18.3374 30.5207 18.7318C30.5453 18.9414 30.533 19.8658 30.5022 20.0322Z" fill="black"/>
<path d="M15.9776 22.0715C15.9406 22.1455 15.7556 22.2256 15.546 22.2564C15.3363 22.2872 14.6951 22.2687 14.3314 22.2256C13.0243 22.053 11.637 21.6525 10.6259 21.1594C10.0587 20.8821 9.65173 20.6048 9.34962 20.3028L9.17699 20.1241L9.15849 19.8899C9.12766 19.4832 9.13383 18.8422 9.18315 18.6142C9.21398 18.4232 9.2818 18.2383 9.37428 18.0719C9.42361 18.0103 9.42361 18.0103 9.64557 18.0103C9.91685 18.0103 10.145 18.0534 10.5149 18.1705C11.2733 18.4047 12.4016 18.9716 13.7765 19.7975C14.9109 20.4754 15.3363 20.8082 15.6631 21.2642C15.8851 21.5477 16.033 21.9483 15.9776 22.0715Z" fill="black"/>
<path d="M24.7058 30.6506C24.7058 30.6691 24.6318 30.9649 24.5393 31.3162C24.4468 31.6675 24.3728 31.951 24.3728 31.9633C24.305 31.9695 24.2433 31.9756 24.1755 31.9695H23.9782L23.7069 32.6104C23.559 32.9617 23.4233 33.2883 23.4048 33.3376L23.3678 33.4239L23.2384 33.2144L23.1089 33.0048V31.2977L23.0596 31.3101C22.9548 31.3347 22.2087 31.4333 21.882 31.4641C20.5317 31.5997 19.1753 31.5689 17.8312 31.3778C17.6154 31.347 17.4304 31.3224 17.4243 31.3285C17.4181 31.3347 17.4243 31.7291 17.4366 32.216L17.4551 33.0911L17.3503 33.2513C17.2948 33.3376 17.2393 33.4116 17.2393 33.4177C17.2208 33.4362 17.1592 33.3376 17.0174 33.0541C16.8632 32.7583 16.7522 32.444 16.6721 32.1174L16.6289 31.9387L16.4378 31.951L16.2467 31.9695L16.1973 31.7414C16.1727 31.6182 16.1419 31.4271 16.1295 31.3224L16.111 31.1252L15.9507 30.9834C15.8582 30.9033 15.7658 30.8232 15.7473 30.8109C15.7164 30.7862 15.7041 30.7431 15.7041 30.7061V30.6321L16.4748 30.6383L17.2455 30.6445L17.2701 30.7246L17.2948 30.8047L17.5599 30.817C17.7079 30.8232 18.1765 30.8355 18.5957 30.8478L19.3664 30.8663L19.5637 30.5582L19.7672 30.2501H20.0261L20.02 29.6091L20.0138 28.9682L19.6747 28.8203C18.5834 28.3396 17.9422 27.7911 17.7017 27.1255C17.6524 26.9899 17.6524 26.9406 17.6401 26.3244C17.6339 25.7142 17.6339 25.6588 17.6771 25.5232C17.7634 25.215 18.0038 24.9747 18.3121 24.8946C18.4169 24.8638 18.6944 24.8638 20.1494 24.8638L21.8635 24.8699L22.0546 24.9624C22.2827 25.0733 22.3875 25.1534 22.517 25.326C22.665 25.5232 22.7081 25.6773 22.7081 26.0532C22.7081 26.5894 22.6711 27.0516 22.6157 27.2364C22.5355 27.4891 22.4122 27.7295 22.2581 27.9452C21.9498 28.3396 21.3887 28.734 20.877 28.9127L20.729 28.9682L20.7352 29.6153L20.7413 30.2624L20.877 30.2747L21.0126 30.287L21.1976 30.5644L21.3764 30.8417H22.2026C22.6588 30.8417 23.0596 30.8478 23.0966 30.854C23.1582 30.8663 23.1706 30.8602 23.2322 30.7554L23.3062 30.6445H24.0152C24.5455 30.6198 24.7058 30.6321 24.7058 30.6506Z" fill="black"/>
<path d="M21.4521 32.4198C21.3349 32.4876 21.2548 32.5184 21.2363 32.5061C21.2178 32.4999 21.1315 32.426 21.039 32.3582L20.8725 32.2226L20.6999 32.4075C20.3238 32.8143 20.3114 32.8327 20.2005 32.8389C20.0278 32.8574 19.9908 32.8266 19.7812 32.5123C19.6702 32.352 19.5839 32.2165 19.5839 32.2165C19.5839 32.2165 19.5038 32.2041 19.4113 32.198L19.2386 32.1795L19.1585 32.3459L19.0783 32.5123L18.9365 32.4691C18.8256 32.4322 18.7146 32.389 18.6098 32.3397L18.4248 32.2473V31.896L20.0648 31.9022L21.7049 31.9083L21.711 32.0747C21.7172 32.2719 21.7234 32.2658 21.4521 32.4198Z" fill="black"/>
<path d="M36.8668 24.9002C36.8606 24.8756 36.8606 24.8324 36.8544 24.7646C35.3747 24.6044 31.1513 24.5058 27.2301 27.7413C27.2301 27.7413 25.9661 21.9482 20.0472 21.9482C14.1283 21.9482 11.9334 27.7413 11.9334 27.7413C8.61638 24.173 4.17721 24.4318 2.57418 24.666C2.57418 24.703 2.56801 24.7461 2.56801 24.7831C2.51868 25.6767 2.54335 26.102 2.69132 26.6628C3.15373 28.4192 4.57797 30.3543 6.80988 32.2524C10.466 35.3585 15.4231 37.6017 19.1779 37.8606C23.093 38.1256 28.8701 35.8392 32.7174 32.4989C33.3216 31.9628 33.8888 31.3958 34.4191 30.7918C34.8013 30.3481 35.3685 29.5839 35.3254 29.5839C35.3131 29.5839 35.3254 29.5716 35.3501 29.5593C35.3685 29.547 35.387 29.5285 35.3747 29.5161C35.3685 29.51 35.3809 29.4915 35.3994 29.4853C35.4179 29.4792 35.4302 29.4668 35.424 29.4545C35.4179 29.4422 35.424 29.4299 35.4487 29.4237C35.4672 29.4175 35.4734 29.3991 35.4672 29.3867C35.461 29.3744 35.4672 29.3621 35.4795 29.3621C35.4919 29.3621 35.5042 29.3436 35.5042 29.3313C35.5042 29.3189 35.5165 29.3004 35.5288 29.3004C35.5412 29.3004 35.5535 29.2881 35.5535 29.2758C35.572 29.2265 35.6028 29.1772 35.6337 29.1341C35.7261 28.9923 36.0961 28.3329 36.1454 28.222C36.4968 27.427 36.7188 26.7182 36.8236 26.0095C36.8606 25.6706 36.8914 25.0481 36.8668 24.9002ZM21.453 32.4188C21.3358 32.4866 21.2557 32.5174 21.2372 32.5051C21.2187 32.4989 21.1324 32.425 21.0399 32.3572L20.8734 32.2216L20.7008 32.4065C20.3247 32.8132 20.3124 32.8317 20.2014 32.8379C20.0287 32.8564 19.9918 32.8256 19.7821 32.5113C19.6711 32.351 19.5848 32.2154 19.5848 32.2154C19.5848 32.2154 19.5047 32.2031 19.4122 32.197L19.2396 32.1785L19.1594 32.3449L19.0793 32.5113L18.9374 32.4681C18.8265 32.4311 18.7155 32.388 18.6107 32.3387L18.4257 32.2463V31.895L20.0657 31.9011L21.7058 31.9073L21.7119 32.0737C21.7181 32.2709 21.7243 32.2648 21.453 32.4188ZM24.5357 31.3095C24.4433 31.6608 24.3693 31.9443 24.3693 31.9566C24.3014 31.9628 24.2398 31.9689 24.172 31.9628H23.9747L23.7096 32.6099C23.5616 32.9611 23.4259 33.2878 23.4074 33.3371L23.3705 33.4234L23.241 33.2138L23.1115 33.0043V31.2972L23.0622 31.3095C22.9574 31.3342 22.2113 31.4328 21.8846 31.4636C20.5343 31.5992 19.1779 31.5684 17.8338 31.3773C17.618 31.3465 17.4331 31.3218 17.4269 31.328C17.4207 31.3342 17.4269 31.7286 17.4392 32.2154L17.4577 33.0906L17.3529 33.2508C17.2974 33.3371 17.2419 33.411 17.2419 33.4172C17.2234 33.4357 17.1618 33.3371 17.02 33.0536C16.8658 32.7578 16.7549 32.4435 16.6747 32.1168L16.6315 31.9381L16.4404 31.9504L16.2493 31.9689L16.2 31.7409C16.1753 31.6177 16.1445 31.4266 16.1321 31.3218L16.1136 31.1246L15.9533 30.9829C15.8609 30.9028 15.7684 30.8227 15.7499 30.8103C15.7191 30.7857 15.7067 30.7425 15.7067 30.7056V30.6316L16.4774 30.6378L17.2481 30.6439L17.2728 30.7241L17.2974 30.8042L17.5625 30.8165C17.7105 30.8227 18.1791 30.835 18.5983 30.8473L19.369 30.8658L19.5663 30.5577L19.7698 30.2495H20.0287L20.0226 29.6086L20.0164 28.9677L19.6773 28.8198C18.586 28.3391 17.9448 27.7906 17.7043 27.125C17.655 26.9894 17.655 26.9401 17.6427 26.3238C17.6365 25.7137 17.6365 25.6582 17.6797 25.5227C17.766 25.2145 18.0065 24.9742 18.3147 24.8941C18.4195 24.8632 18.697 24.8632 20.1521 24.8632L21.8661 24.8694L22.0572 24.9618C22.2853 25.0728 22.3901 25.1529 22.5196 25.3255C22.6676 25.5227 22.7107 25.6767 22.7107 26.0527C22.7107 26.5888 22.6738 27.051 22.6183 27.2359C22.5381 27.4886 22.4148 27.7289 22.2607 27.9446C21.9524 28.3391 21.3913 28.7335 20.8796 28.9122L20.7316 28.9677L20.7378 29.6148L20.7439 30.2618L20.8796 30.2742L21.0152 30.2865L21.2002 30.5638L21.379 30.8411H22.2052C22.6614 30.8411 23.0622 30.8473 23.0992 30.8535C23.1608 30.8658 23.1732 30.8596 23.2348 30.7549L23.3088 30.6439H24.0178C24.5666 30.6439 24.7269 30.6501 24.7269 30.6686C24.7084 30.6624 24.6282 30.9644 24.5357 31.3095Z" fill="white"/>
<path d="M36.8152 24.2722C36.8028 23.9949 36.7782 23.6066 36.7597 23.4156C36.4945 20.6176 35.7794 18.3313 34.4229 15.9093C34.3675 15.8168 34.3181 15.7244 34.2873 15.6504C34.275 15.632 34.2688 15.6135 34.2626 15.6011C34.4538 15.028 35.2368 12.6307 35.8595 9.88823C36.7042 6.16591 37.2406 1.81498 35.6006 0.508469C35.6006 0.508469 32.7644 0.298934 28.9665 4.02126C27.9368 5.05044 26.9935 6.16591 26.155 7.35533L25.8899 7.26905C24.3608 6.76986 22.7763 6.46172 21.1794 6.35695C20.6985 6.31998 18.9043 6.31998 18.3186 6.35695C16.5491 6.47405 15.1927 6.73905 13.6513 7.27521C13.5897 7.29986 13.5342 7.31835 13.4787 7.33684C12.6094 6.15358 11.6414 5.04428 10.5747 4.02742C6.62264 0.286609 3.68169 0.502306 3.68169 0.502306C1.94302 1.85196 2.53491 6.40009 3.43507 10.2457C4.02696 12.7909 4.75449 15.028 5.02578 15.8353C5.00728 15.8785 4.98262 15.9278 4.95796 15.9709C3.52139 18.8797 2.74454 21.6838 2.55957 24.6666C4.16877 24.4324 8.60177 24.1674 11.925 27.7418C11.925 27.7418 14.1199 21.9488 20.0388 21.9488C25.9577 21.9488 27.2216 27.7418 27.2216 27.7418C31.1429 24.5064 35.3663 24.6111 36.846 24.7652C36.8398 24.6419 36.8275 24.4571 36.8152 24.2722ZM6.19106 13.512C6.19106 13.512 3.88515 7.74975 4.47704 4.45882C4.57569 3.90417 4.76066 3.4173 5.05044 3.04754C5.05044 3.04754 7.66461 3.30637 11.8818 7.99009C11.8818 7.99009 11.0803 8.37835 10.0075 9.20416C10.0075 9.20416 10.0013 9.21033 9.99518 9.21033C8.8299 10.1039 7.33784 11.5214 6.19106 13.512ZM15.9757 22.0721C15.9387 22.146 15.7538 22.2261 15.5441 22.2569C15.3345 22.2878 14.6933 22.2693 14.3295 22.2261C13.0224 22.0536 11.6352 21.653 10.6241 21.16C10.0568 20.8826 9.64991 20.6053 9.3478 20.3033L9.17517 20.1246L9.15667 19.8904C9.12584 19.4837 9.13201 18.8428 9.18133 18.6147C9.21216 18.4237 9.27998 18.2388 9.37246 18.0724C9.42179 18.0108 9.42179 18.0108 9.64375 18.0108C9.91503 18.0108 10.1432 18.0539 10.5131 18.171C11.2714 18.4052 12.3997 18.9722 13.7746 19.798C14.9091 20.4759 15.3345 20.8087 15.6613 21.2647C15.8832 21.5482 16.0312 21.9488 15.9757 22.0721ZM30.5017 20.0322C30.4832 20.1308 30.1934 20.4266 29.9036 20.6423C29.0528 21.2647 27.5299 21.844 25.9824 22.1214C25.1007 22.2816 24.219 22.3063 23.9539 22.1768C23.7813 22.0906 23.7566 22.0228 23.8183 21.8009C23.9477 21.3387 24.367 20.8333 25.0205 20.3588C25.3535 20.1185 26.7037 19.2988 27.3326 18.9537C28.3684 18.3867 29.2069 18.0478 29.7741 17.9676C29.9529 17.943 30.1687 17.9368 30.2366 17.9676C30.3475 18.0108 30.4708 18.3374 30.5202 18.7318C30.5448 18.9414 30.5325 19.8658 30.5017 20.0322ZM29.4782 9.20416L29.4659 9.198C28.4301 8.37219 27.6532 7.98393 27.6532 7.98393C31.7286 3.30021 34.2503 3.04138 34.2503 3.04138C34.5278 3.41731 34.7066 3.898 34.8052 4.45265C35.3786 7.74358 33.1528 13.512 33.1528 13.512C32.2218 11.8542 30.9703 10.3874 29.4782 9.20416Z" fill="#FFA409"/>
<path d="M34.8115 4.45181C34.3306 4.39018 32.0555 4.37785 29.4783 9.20332L29.466 9.19715C28.4302 8.37134 27.6533 7.98308 27.6533 7.98308C31.7287 3.29936 34.2504 3.04053 34.2504 3.04053C34.534 3.41646 34.7128 3.89715 34.8115 4.45181Z" fill="#FF9300"/>
<path d="M33.1584 13.511C32.2212 11.847 30.9758 10.3865 29.4775 9.20321C32.0547 4.37774 34.3236 4.39007 34.8107 4.4517C35.3841 7.74879 33.1584 13.511 33.1584 13.511Z" fill="#FF8300"/>
<path d="M34.9052 4.47069C34.8743 4.46451 34.8434 4.45833 34.8125 4.45215L34.9052 4.47069Z" fill="#FF8300"/>
<path d="M11.8826 7.98308C11.8826 7.98308 11.0811 8.37134 10.0083 9.19715C10.0083 9.19715 10.0021 9.20331 9.99598 9.20331C7.32631 4.37169 4.97725 4.39018 4.47168 4.45181C4.57033 3.89715 4.7553 3.41029 5.04508 3.04053C5.05124 3.04053 7.66541 3.29936 11.8826 7.98308Z" fill="#FF9300"/>
<path d="M10.0023 9.20321C8.83087 10.103 7.33882 11.5143 6.19203 13.511C6.19203 13.511 3.88613 7.74879 4.47802 4.4517C4.97742 4.39007 7.33265 4.37774 10.0023 9.20321Z" fill="#FF8300"/>
<path d="M4.4788 4.45215C4.44789 4.45833 4.41079 4.46451 4.37988 4.47069L4.4788 4.45215Z" fill="#FF8300"/>
<path d="M26.9205 16.7115C26.9205 16.7115 24.9476 16.8348 25.1942 15.2941C25.4408 13.7534 26.9822 13.5685 27.4138 13.6301C27.8454 13.6917 29.5717 14.308 29.2634 15.6022C28.9551 16.8964 28.5236 16.6499 28.2769 16.7115C28.0303 16.7731 26.9205 16.7115 26.9205 16.7115Z" fill="white"/>
<path d="M12.3707 16.7115C12.3707 16.7115 10.3978 16.8348 10.6444 15.2941C10.891 13.7534 12.4324 13.5685 12.864 13.6301C13.2956 13.6917 15.0219 14.308 14.7136 15.6022C14.4053 16.8964 13.9738 16.6499 13.7271 16.7115C13.4805 16.7731 12.3707 16.7115 12.3707 16.7115Z" fill="white"/>
</g>
<defs>
<clipPath id="clip0_2694_1742">
<rect width="40" height="40" fill="white" transform="translate(0 0.5)"/>
</clipPath>
</defs>
</svg>
