<svg width="40" height="41" viewBox="0 0 40 41" fill="none" xmlns="http://www.w3.org/2000/svg">
<circle cx="20" cy="20.5" r="20" fill="#09090C"/>
<path d="M27.9931 10.2048V8.62793H13.7939V21.41H21.0674V21.4137H26.1531V19.8369H15.5681V10.2048H27.9931Z" fill="white"/>
<path d="M15.6626 31.3573V22.3135H13.8884V29.7805H11.8643V31.3573H15.6626Z" fill="white"/>
<path d="M10.2525 31.1319C10.7538 31.1319 11.1603 30.7255 11.1603 30.2242C11.1603 29.7228 10.7538 29.3164 10.2525 29.3164C9.75115 29.3164 9.34473 29.7228 9.34473 30.2242C9.34473 30.7255 9.75115 31.1319 10.2525 31.1319Z" fill="#79AEA1"/>
<path d="M27.2349 20.9923C27.7363 20.9923 28.1427 20.5859 28.1427 20.0845C28.1427 19.5832 27.7363 19.1768 27.2349 19.1768C26.7336 19.1768 26.3271 19.5832 26.3271 20.0845C26.3271 20.5859 26.7336 20.9923 27.2349 20.9923Z" fill="#79AEA1"/>
<path d="M28.8892 10.401C29.3906 10.401 29.797 9.99456 29.797 9.49322C29.797 8.99187 29.3906 8.58545 28.8892 8.58545C28.3879 8.58545 27.9814 8.99187 27.9814 9.49322C27.9814 9.99456 28.3879 10.401 28.8892 10.401Z" fill="#79AEA1"/>
</svg>
