<svg width="43" height="42" viewBox="0 0 43 42" fill="none" xmlns="http://www.w3.org/2000/svg">
<path d="M35.5 5.25H9.25C6.3555 5.25 4 7.6055 4 10.5V31.5C4 34.3945 6.3555 36.75 9.25 36.75H35.5C37.4302 36.75 39 35.1803 39 33.25V8.75C39 6.81975 37.4302 5.25 35.5 5.25ZM9.25 33.25C8.284 33.25 7.5 32.4643 7.5 31.5V10.5C7.5 9.53575 8.284 8.75 9.25 8.75H35.5V14H25C23.0697 14 21.5 15.5697 21.5 17.5V24.5C21.5 26.4303 23.0697 28 25 28H35.5017V33.25H9.25ZM35.5 17.5V24.5H25V17.5H35.5Z" fill="#F5F7FD"/>
</svg>
