<?xml version="1.0" encoding="utf-8"?>
<svg width="16" height="16" viewBox="0 0 16 16" fill="none" xmlns="http://www.w3.org/2000/svg">
<path fill-rule="evenodd" clip-rule="evenodd" d="M7.4704 0.470158C7.7633 0.177265 8.23817 0.177265 8.53106 0.470158C8.82396 0.763051 8.82396 1.23793 8.53106 1.53082L2.81164 7.25024H15.0005C15.4147 7.25024 15.7505 7.58603 15.7505 8.00024C15.7505 8.41446 15.4147 8.75024 15.0005 8.75024H2.81115L8.53106 14.4702C8.82396 14.7631 8.82396 15.2379 8.53106 15.5308C8.23817 15.8237 7.7633 15.8237 7.4704 15.5308L0.470403 8.53082C0.434107 8.49452 0.402308 8.45543 0.375008 8.41424C0.296323 8.2956 0.250488 8.15327 0.250488 8.00024C0.250488 7.78491 0.341235 7.59078 0.48657 7.45399L7.4704 0.470158Z" fill="black"/>
</svg>

