<?xml version="1.0" encoding="utf-8"?>
<!-- Generator: Adobe Illustrator 25.2.3, SVG Export Plug-In . SVG Version: 6.00 Build 0)  -->
<svg version="1.1" id="Layer_1" xmlns="http://www.w3.org/2000/svg" x="0px" y="0px"
     viewBox="0 0 19 18" style="enable-background:new 0 0 19 18;" xml:space="preserve">
<path class="st0" d="M18,9H1.7l5.6-5.6c0.2-0.2,0.2-0.5,0-0.7s-0.5-0.2-0.7,0L0.1,9.1C0,9.2,0,9.4,0,9.5c0,0.1,0.1,0.3,0.2,0.4
	l6.5,5.5c0.1,0.1,0.2,0.1,0.3,0.1c0.1,0,0.3-0.1,0.4-0.2c0.2-0.2,0.2-0.5-0.1-0.7L1.9,10H18c0.3,0,0.5-0.2,0.5-0.5S18.3,9,18,9z"/>
</svg>
