<svg width="20" height="20" viewBox="0 0 20 20" fill="none" xmlns="http://www.w3.org/2000/svg">
<mask id="path-1-outside-1_5568_3128" maskUnits="userSpaceOnUse" x="0" y="0" width="20" height="20" fill="black">
<rect fill="white" width="20" height="20"/>
<path d="M3 11.3999C3 6.30899 5 1 10 1C15 1 17 6.30899 17 11.3999C17 17.3999 19 19 19 19H1C1 19 3 16.4908 3 11.3999Z"/>
</mask>
<path d="M1 19L0.218016 18.3767C-0.0213822 18.677 -0.0676053 19.088 0.0990844 19.434C0.265774 19.78 0.615918 20 1 20L1 19ZM19 19V20C19.4247 20 19.803 19.7318 19.9436 19.331C20.0842 18.9303 19.9563 18.4845 19.6247 18.2191L19 19ZM10 0C7.06811 0 5.02072 1.58855 3.75732 3.79374C2.51756 5.95766 2 8.74682 2 11.3999H4C4 8.96208 4.48244 6.55129 5.49268 4.78798C6.47928 3.06594 7.93189 2 10 2V0ZM2 11.3999C2 13.8111 1.52697 15.5866 1.07014 16.7411C0.841296 17.3195 0.615596 17.7443 0.453363 18.0166C0.372243 18.1528 0.307012 18.2509 0.265235 18.3109C0.24435 18.3409 0.229338 18.3614 0.221148 18.3723C0.217053 18.3778 0.214665 18.3809 0.214103 18.3817C0.213822 18.382 0.213998 18.3818 0.214645 18.381C0.214968 18.3805 0.21541 18.38 0.215971 18.3793C0.216251 18.3789 0.216562 18.3785 0.216903 18.3781C0.217073 18.3779 0.217351 18.3775 0.217436 18.3774C0.217722 18.3771 0.218016 18.3767 1 19C1.78198 19.6233 1.78229 19.6229 1.78261 19.6225C1.78272 19.6224 1.78305 19.622 1.78328 19.6217C1.78374 19.6211 1.78423 19.6205 1.78476 19.6198C1.7858 19.6185 1.78697 19.617 1.78825 19.6154C1.79082 19.6121 1.79387 19.6082 1.79737 19.6036C1.80438 19.5946 1.81322 19.583 1.82377 19.5688C1.84488 19.5406 1.87284 19.5021 1.90664 19.4536C1.97424 19.3565 2.06526 19.2187 2.17164 19.0401C2.3844 18.6829 2.6587 18.1623 2.92986 17.477C3.47303 16.1042 4 14.0797 4 11.3999H2ZM1 20H19V18H1V20ZM19 19C19.6247 18.2191 19.6254 18.2197 19.6261 18.2202C19.6263 18.2204 19.627 18.221 19.6274 18.2213C19.6283 18.222 19.6291 18.2227 19.6299 18.2233C19.6315 18.2247 19.633 18.2259 19.6344 18.227C19.6372 18.2293 19.6394 18.2312 19.6412 18.2327C19.6448 18.2358 19.6465 18.2373 19.6465 18.2373C19.6465 18.2373 19.6394 18.2309 19.6262 18.2175C19.5998 18.1907 19.5486 18.1356 19.4801 18.0465C19.3436 17.869 19.135 17.5526 18.9171 17.0512C18.4814 16.0492 18 14.2891 18 11.3999H16C16 14.5107 16.5186 16.5507 17.0829 17.8487C17.365 18.4974 17.6564 18.956 17.8949 19.2659C18.0139 19.4206 18.1189 19.5374 18.2019 19.6216C18.2434 19.6637 18.2793 19.6975 18.3086 19.7238C18.3232 19.737 18.3361 19.7483 18.3473 19.7578C18.3529 19.7625 18.358 19.7668 18.3627 19.7706C18.365 19.7725 18.3672 19.7744 18.3693 19.7761C18.3704 19.7769 18.3714 19.7777 18.3724 19.7785C18.3729 19.7789 18.3736 19.7795 18.3739 19.7797C18.3746 19.7803 18.3753 19.7809 19 19ZM18 11.3999C18 8.74682 17.4824 5.95766 16.2427 3.79374C14.9793 1.58855 12.9319 0 10 0V2C12.0681 2 13.5207 3.06594 14.5073 4.78798C15.5176 6.55129 16 8.96208 16 11.3999H18Z" fill="white" mask="url(#path-1-outside-1_5568_3128)"/>
</svg>
