<svg width="24" height="25" viewBox="0 0 24 25" fill="none" xmlns="http://www.w3.org/2000/svg">
<path fill-rule="evenodd" clip-rule="evenodd" d="M22 12.5C22 18.0228 17.5228 22.5 12 22.5C6.47715 22.5 2 18.0228 2 12.5C2 6.97715 6.47715 2.5 12 2.5C17.5228 2.5 22 6.97715 22 12.5ZM24 12.5C24 19.1274 18.6274 24.5 12 24.5C5.37258 24.5 0 19.1274 0 12.5C0 5.87258 5.37258 0.5 12 0.5C18.6274 0.5 24 5.87258 24 12.5ZM18.7133 9.203C19.0809 8.79193 19.0595 8.14395 18.6655 7.75569C18.2716 7.36744 17.6542 7.38593 17.2867 7.797L10.8032 15.0478L7.12174 12.0442C6.69511 11.6961 6.08248 11.7752 5.75339 12.2208C5.4243 12.6664 5.50337 13.3098 5.93001 13.6578L10.3147 17.2352C10.7133 17.5605 11.2805 17.5155 11.6239 17.1314L18.7133 9.203Z" fill="#28CEA8"/>
</svg>
