<svg width="16" height="16" viewBox="0 0 16 16" fill="none" xmlns="http://www.w3.org/2000/svg">
<path fill-rule="evenodd" clip-rule="evenodd" d="M10.7929 3.79289C11.1834 3.40237 11.8166 3.40237 12.2071 3.79289C12.5976 4.18342 12.5976 4.81658 12.2071 5.20711L9.41421 8L12.2071 10.7929C12.5976 11.1834 12.5976 11.8166 12.2071 12.2071C11.8166 12.5976 11.1834 12.5976 10.7929 12.2071L8 9.41421L5.20711 12.2071C4.81658 12.5976 4.18342 12.5976 3.79289 12.2071C3.40237 11.8166 3.40237 11.1834 3.79289 10.7929L6.58579 8L3.79289 5.20711C3.40237 4.81658 3.40237 4.18342 3.79289 3.79289C4.18342 3.40237 4.81658 3.40237 5.20711 3.79289L8 6.58579L10.7929 3.79289Z" fill="#4C5165"/>
</svg>
