<svg width="24" height="24" viewBox="0 0 24 24" fill="none" xmlns="http://www.w3.org/2000/svg">
<path fill-rule="evenodd" clip-rule="evenodd" d="M16.1893 5.68934C16.7751 5.10355 17.7249 5.10355 18.3107 5.68934C18.8964 6.27513 18.8964 7.22487 18.3107 7.81066L14.1213 12L18.3107 16.1893C18.8964 16.7751 18.8964 17.7249 18.3107 18.3107C17.7249 18.8964 16.7751 18.8964 16.1893 18.3107L12 14.1213L7.81066 18.3107C7.22487 18.8964 6.27513 18.8964 5.68934 18.3107C5.10355 17.7249 5.10355 16.7751 5.68934 16.1893L9.87868 12L5.68934 7.81066C5.10355 7.22487 5.10355 6.27513 5.68934 5.68934C6.27513 5.10355 7.22487 5.10355 7.81066 5.68934L12 9.87868L16.1893 5.68934Z" fill="#4C5165"/>
</svg>
