<svg width="28" height="28" viewBox="0 0 28 28" fill="none" xmlns="http://www.w3.org/2000/svg">
<path d="M22.1501 16.3188C22.9251 15.1034 23.3356 13.6914 23.3331 12.25C23.3331 8.06167 19.9381 4.66667 15.7498 4.66667C14.2523 4.66667 12.8564 5.10067 11.681 5.84908C10.8988 5.89296 10.1245 6.02964 9.37451 6.25625C9.94459 5.6502 10.5978 5.12816 11.3147 4.70575C12.6499 3.91898 14.1708 3.50275 15.7206 3.5H15.7498C20.5821 3.5 24.4998 7.41767 24.4998 12.25C24.4998 12.3288 24.4986 12.4069 24.4968 12.4851L24.4957 12.5131C24.454 13.9829 24.0405 15.4182 23.294 16.6851C22.8716 17.4019 22.3496 18.0552 21.7435 18.6253C21.9658 17.8885 22.1052 17.1162 22.1501 16.3188Z" fill="white"/>
<path fill-rule="evenodd" clip-rule="evenodd" d="M15.0338 13.2211C14.8729 12.7661 14.5749 12.3722 14.1809 12.0936C13.7868 11.815 13.3161 11.6654 12.8335 11.6654V11.082H11.6668V11.6654C11.048 11.6654 10.4545 11.9112 10.0169 12.3488C9.57933 12.7864 9.3335 13.3799 9.3335 13.9987C9.3335 14.6175 9.57933 15.211 10.0169 15.6486C10.4545 16.0862 11.048 16.332 11.6668 16.332V18.6654C11.1593 18.6654 10.7271 18.3416 10.5661 17.8878C10.5422 17.8135 10.5037 17.7448 10.4528 17.6857C10.4019 17.6266 10.3396 17.5783 10.2697 17.5437C10.1998 17.5091 10.1237 17.4888 10.0459 17.4842C9.96799 17.4795 9.88999 17.4904 9.81645 17.5164C9.7429 17.5424 9.67532 17.5829 9.61769 17.6354C9.56006 17.688 9.51356 17.7516 9.48093 17.8224C9.4483 17.8933 9.43022 17.9699 9.42774 18.0479C9.42526 18.1258 9.43844 18.2035 9.4665 18.2763C9.6274 18.7313 9.9254 19.1252 10.3194 19.4038C10.7135 19.6824 11.1842 19.832 11.6668 19.832V20.4154H12.8335V19.832C13.4523 19.832 14.0458 19.5862 14.4834 19.1486C14.921 18.711 15.1668 18.1175 15.1668 17.4987C15.1668 16.8799 14.921 16.2864 14.4834 15.8488C14.0458 15.4112 13.4523 15.1654 12.8335 15.1654V12.832C13.341 12.832 13.7732 13.1558 13.9342 13.6096C13.9581 13.6839 13.9967 13.7526 14.0476 13.8117C14.0985 13.8708 14.1607 13.9191 14.2306 13.9537C14.3005 13.9883 14.3766 14.0086 14.4545 14.0132C14.5323 14.0179 14.6103 14.007 14.6839 13.981C14.7574 13.955 14.825 13.9145 14.8826 13.862C14.9403 13.8094 14.9868 13.7458 15.0194 13.675C15.052 13.6041 15.0701 13.5275 15.0726 13.4495C15.0751 13.3716 15.0619 13.2939 15.0338 13.2211ZM11.6668 12.832C11.3574 12.832 11.0607 12.9549 10.8419 13.1737C10.6231 13.3925 10.5002 13.6893 10.5002 13.9987C10.5002 14.3081 10.6231 14.6049 10.8419 14.8237C11.0607 15.0424 11.3574 15.1654 11.6668 15.1654V12.832ZM12.8335 18.6654C13.1429 18.6654 13.4397 18.5424 13.6585 18.3237C13.8772 18.1049 14.0002 17.8081 14.0002 17.4987C14.0002 17.1893 13.8772 16.8925 13.6585 16.6737C13.4397 16.4549 13.1429 16.332 12.8335 16.332V18.6654Z" fill="white"/>
<path fill-rule="evenodd" clip-rule="evenodd" d="M21 15.75C21 20.5823 17.0823 24.5 12.25 24.5C7.41767 24.5 3.5 20.5823 3.5 15.75C3.5 10.9177 7.41767 7 12.25 7C17.0823 7 21 10.9177 21 15.75ZM19.8333 15.75C19.8333 19.9383 16.4383 23.3333 12.25 23.3333C8.06167 23.3333 4.66667 19.9383 4.66667 15.75C4.66667 11.5617 8.06167 8.16667 12.25 8.16667C16.4383 8.16667 19.8333 11.5617 19.8333 15.75Z" fill="white"/>
</svg>
