<svg width="201" height="174" viewBox="0 0 201 174" fill="none" xmlns="http://www.w3.org/2000/svg">
<g filter="url(#filter0_d_2595_9089)">
<circle cx="45.3865" cy="34.083" r="34.083" fill="url(#paint0_linear_2595_9089)" fill-opacity="0.1"/>
<circle cx="45.3865" cy="34.083" r="33.6684" stroke="url(#paint1_linear_2595_9089)" stroke-width="0.82921"/>
<circle cx="45.3865" cy="34.083" r="33.6684" stroke="url(#paint2_linear_2595_9089)" stroke-width="0.82921"/>
</g>
<path d="M59.0092 16.5383V13.8511H34.8118V35.6335H47.2067V35.64H55.8736V32.9528H37.8352V16.5383H59.0092Z" fill="white"/>
<path d="M37.9966 52.5842V37.1721H34.9731V49.897H31.5237V52.5842H37.9966Z" fill="white"/>
<path d="M61.6421 16.7267C62.5109 16.7267 63.2152 16.0224 63.2152 15.1536C63.2152 14.2848 62.5109 13.5806 61.6421 13.5806C60.7734 13.5806 60.0691 14.2848 60.0691 15.1536C60.0691 16.0224 60.7734 16.7267 61.6421 16.7267Z" fill="#79AEA1"/>
<path d="M58.4957 35.6561C59.3644 35.6561 60.0687 34.9518 60.0687 34.0831C60.0687 33.2143 59.3644 32.51 58.4957 32.51C57.6269 32.51 56.9226 33.2143 56.9226 34.0831C56.9226 34.9518 57.6269 35.6561 58.4957 35.6561Z" fill="#79AEA1"/>
<path d="M29.132 52.9596C30.0008 52.9596 30.7051 52.2553 30.7051 51.3865C30.7051 50.5178 30.0008 49.8135 29.132 49.8135C28.2632 49.8135 27.559 50.5178 27.559 51.3865C27.559 52.2553 28.2632 52.9596 29.132 52.9596Z" fill="#79AEA1"/>
<g filter="url(#filter1_d_2595_9089)">
<circle cx="38.2535" cy="134.747" r="36.6803" stroke="url(#paint3_linear_2595_9089)" stroke-width="1.14626"/>
<circle cx="38.2535" cy="134.747" r="36.6803" stroke="url(#paint4_linear_2595_9089)" stroke-width="1.14626"/>
</g>
<g clip-path="url(#clip0_2595_9089)">
<path d="M38.2912 111.761L37.9828 112.809V143.207L38.2912 143.514L52.4012 135.174L38.2912 111.761Z" fill="#343434"/>
<path d="M38.2655 111.761L24.1552 135.174L38.2655 143.514V128.76V111.761Z" fill="#8C8C8C"/>
<path d="M38.2465 146.181L38.0726 146.393V157.221L38.2465 157.729L52.3651 137.845L38.2465 146.181Z" fill="#3C3C3B"/>
<path d="M38.2655 157.729V146.181L24.1552 137.845L38.2655 157.729Z" fill="#8C8C8C"/>
<path d="M38.2522 143.531L52.3622 135.19L38.2522 128.776V143.531Z" fill="#141414"/>
<path d="M24.1552 135.19L38.2655 143.531V128.776L24.1552 135.19Z" fill="#393939"/>
</g>
<g filter="url(#filter2_d_2595_9089)">
<circle cx="148.429" cy="97.4934" r="51.5208" fill="url(#paint5_linear_2595_9089)" fill-opacity="0.2"/>
<circle cx="148.429" cy="97.4934" r="50.7281" stroke="url(#paint6_linear_2595_9089)" stroke-width="1.58525"/>
</g>
<path fill-rule="evenodd" clip-rule="evenodd" d="M137.487 85.3081L148.429 74.3658L158.039 83.9756L136.186 105.829L138.761 108.404L147.099 100.066L158.042 111.008L148.429 120.621L125.301 97.4933L134.912 87.883L142.438 95.4091L145.013 92.8341L137.487 85.3081ZM149.674 97.4905L160.617 108.433L171.557 97.4933L160.614 86.5505L149.674 97.4905ZM120.151 97.4933L122.726 94.9183L145.854 71.7908L148.429 69.2158L151.004 71.7908L174.132 94.9183L176.707 97.4933L174.132 100.068L151.004 123.196L148.429 125.771L145.854 123.196L122.726 100.068L120.151 97.4933Z" fill="#357EFD"/>
<path fill-rule="evenodd" clip-rule="evenodd" d="M137.487 85.3081L148.429 74.3658L158.039 83.9756L136.186 105.829L138.761 108.404L147.099 100.066L158.042 111.008L148.429 120.621L125.301 97.4933L134.912 87.883L142.438 95.4091L145.013 92.8341L137.487 85.3081ZM149.674 97.4905L160.617 108.433L171.557 97.4933L160.614 86.5505L149.674 97.4905ZM120.151 97.4933L122.726 94.9183L145.854 71.7908L148.429 69.2158L151.004 71.7908L174.132 94.9183L176.707 97.4933L174.132 100.068L151.004 123.196L148.429 125.771L145.854 123.196L122.726 100.068L120.151 97.4933Z" fill="url(#paint7_linear_2595_9089)" fill-opacity="0.2"/>
<path d="M73.1294 53.106L105.231 70.5438" stroke="url(#paint8_linear_2595_9089)" stroke-width="0.792627"/>
<path d="M41.4243 67.373L39.4427 97.8892" stroke="url(#paint9_linear_2595_9089)" stroke-width="0.792627"/>
<defs>
<filter id="filter0_d_2595_9089" x="10.7784" y="0" width="69.2162" height="69.2163" filterUnits="userSpaceOnUse" color-interpolation-filters="sRGB">
<feFlood flood-opacity="0" result="BackgroundImageFix"/>
<feColorMatrix in="SourceAlpha" type="matrix" values="0 0 0 0 0 0 0 0 0 0 0 0 0 0 0 0 0 0 127 0" result="hardAlpha"/>
<feOffset dy="0.525166"/>
<feGaussianBlur stdDeviation="0.262583"/>
<feColorMatrix type="matrix" values="0 0 0 0 0 0 0 0 0 0 0 0 0 0 0 0 0 0 0.25 0"/>
<feBlend mode="normal" in2="BackgroundImageFix" result="effect1_dropShadow_2595_9089"/>
<feBlend mode="normal" in="SourceGraphic" in2="effect1_dropShadow_2595_9089" result="shape"/>
</filter>
<filter id="filter1_d_2595_9089" x="0.274035" y="97.4932" width="75.9589" height="75.9588" filterUnits="userSpaceOnUse" color-interpolation-filters="sRGB">
<feFlood flood-opacity="0" result="BackgroundImageFix"/>
<feColorMatrix in="SourceAlpha" type="matrix" values="0 0 0 0 0 0 0 0 0 0 0 0 0 0 0 0 0 0 127 0" result="hardAlpha"/>
<feOffset dy="0.725965"/>
<feGaussianBlur stdDeviation="0.362983"/>
<feColorMatrix type="matrix" values="0 0 0 0 0 0 0 0 0 0 0 0 0 0 0 0 0 0 0.25 0"/>
<feBlend mode="normal" in2="BackgroundImageFix" result="effect1_dropShadow_2595_9089"/>
<feBlend mode="normal" in="SourceGraphic" in2="effect1_dropShadow_2595_9089" result="shape"/>
</filter>
<filter id="filter2_d_2595_9089" x="95.9045" y="45.9727" width="105.049" height="105.049" filterUnits="userSpaceOnUse" color-interpolation-filters="sRGB">
<feFlood flood-opacity="0" result="BackgroundImageFix"/>
<feColorMatrix in="SourceAlpha" type="matrix" values="0 0 0 0 0 0 0 0 0 0 0 0 0 0 0 0 0 0 127 0" result="hardAlpha"/>
<feOffset dy="1.00399"/>
<feGaussianBlur stdDeviation="0.501997"/>
<feColorMatrix type="matrix" values="0 0 0 0 0 0 0 0 0 0 0 0 0 0 0 0 0 0 0.25 0"/>
<feBlend mode="normal" in2="BackgroundImageFix" result="effect1_dropShadow_2595_9089"/>
<feBlend mode="normal" in="SourceGraphic" in2="effect1_dropShadow_2595_9089" result="shape"/>
</filter>
<linearGradient id="paint0_linear_2595_9089" x1="13.9004" y1="4.2198" x2="76.0612" y2="64.5953" gradientUnits="userSpaceOnUse">
<stop/>
<stop offset="1" stop-color="#212123"/>
</linearGradient>
<linearGradient id="paint1_linear_2595_9089" x1="22.4004" y1="3.14779e-07" x2="64.4096" y2="68.1659" gradientUnits="userSpaceOnUse">
<stop stop-color="#79AEA1"/>
<stop offset="1" stop-color="white" stop-opacity="0"/>
</linearGradient>
<linearGradient id="paint2_linear_2595_9089" x1="82.0076" y1="71.4292" x2="34.8716" y2="39.8843" gradientUnits="userSpaceOnUse">
<stop stop-color="#1B66E9"/>
<stop offset="1" stop-opacity="0"/>
</linearGradient>
<linearGradient id="paint3_linear_2595_9089" x1="81.8479" y1="127.613" x2="26.3641" y2="156.148" gradientUnits="userSpaceOnUse">
<stop stop-color="#1B66EA"/>
<stop offset="1" stop-color="white" stop-opacity="0"/>
</linearGradient>
<linearGradient id="paint4_linear_2595_9089" x1="32.7051" y1="61.8249" x2="59.0461" y2="172" gradientUnits="userSpaceOnUse">
<stop stop-color="#79AEA1"/>
<stop offset="1" stop-color="white" stop-opacity="0"/>
</linearGradient>
<linearGradient id="paint5_linear_2595_9089" x1="219.766" y1="-26.949" x2="96.9084" y2="247.3" gradientUnits="userSpaceOnUse">
<stop stop-color="white" stop-opacity="0"/>
<stop offset="1"/>
</linearGradient>
<linearGradient id="paint6_linear_2595_9089" x1="113.683" y1="45.9727" x2="177.185" y2="149.014" gradientUnits="userSpaceOnUse">
<stop stop-color="#0066FF"/>
<stop offset="1" stop-color="white" stop-opacity="0"/>
</linearGradient>
<linearGradient id="paint7_linear_2595_9089" x1="148.429" y1="69.2158" x2="89.3784" y2="216.387" gradientUnits="userSpaceOnUse">
<stop stop-color="white"/>
<stop offset="1" stop-opacity="0"/>
</linearGradient>
<linearGradient id="paint8_linear_2595_9089" x1="68.3736" y1="51.1244" x2="104.834" y2="70.5438" gradientUnits="userSpaceOnUse">
<stop stop-color="#234597"/>
<stop offset="1" stop-color="#2472F4"/>
</linearGradient>
<linearGradient id="paint9_linear_2595_9089" x1="38.2538" y1="68.1657" x2="39.4428" y2="99.0781" gradientUnits="userSpaceOnUse">
<stop stop-color="#35437B"/>
<stop offset="1" stop-color="#93B4CC"/>
</linearGradient>
<clipPath id="clip0_2595_9089">
<rect width="45.9724" height="45.9724" fill="white" transform="translate(15.2672 111.76)"/>
</clipPath>
</defs>
</svg>
