<?xml version="1.0" encoding="UTF-8" standalone="no"?>
<svg
   width="16"
   height="18"
   viewBox="0 0 16 18"
   fill="none"
   version="1.1"
   id="svg223"
   xmlns="http://www.w3.org/2000/svg"
   xmlns:svg="http://www.w3.org/2000/svg">
  <defs
     id="defs227" />
  <path
     id="path221"
     style="color:#000000;fill:#6a7187;-inkscape-stroke:none"
     d="M 6.25,0 C 5.2923831,0 4.5,0.79238309 4.5,1.75 V 3 H 2.125 C 1.1673831,3 0.375,3.7923831 0.375,4.75 v 11.125 c 0,0.957622 0.7924012,1.75 1.75,1.75 H 9.75 c 0.957604,0 1.75,-0.792396 1.75,-1.75 v -1.25 h 2.375 c 0.957604,0 1.75,-0.792396 1.75,-1.75 v -8 h -0.75 l 0.53125,-0.53125 -4.125,-4.125 L 10.75,0.75 V 0 Z m 0,1.5 H 10 v 2.375 c 0,0.9575988 0.792378,1.75 1.75,1.75 h 2.375 v 7.25 c 0,0.146995 -0.103005,0.25 -0.25,0.25 H 10.75 6.25 C 6.1030399,13.125 6,13.021977 6,12.875 V 3.75 1.75 C 6,1.603058 6.103058,1.5 6.25,1.5 Z M 11.5,2.5625 13.0625,4.125 H 11.75 c -0.146977,0 -0.25,-0.1030399 -0.25,-0.25 z M 2.125,4.5 H 4.5 v 8.375 c 0,0.957622 0.7924012,1.75 1.75,1.75 H 10 v 1.25 c 0,0.146995 -0.1030052,0.25 -0.25,0.25 H 2.125 c -0.1469601,0 -0.25,-0.103023 -0.25,-0.25 V 4.75 c 0,-0.146942 0.103058,-0.25 0.25,-0.25 z" />
</svg>
