<svg xmlns="http://www.w3.org/2000/svg" width="16" height="18" viewBox="0 0 16 18" fill="none">
<path d="M5.25 3.75H2.125C1.57272 3.75 1.125 4.19772 1.125 4.75V15.875C1.125 16.4273 1.57272 16.875 2.125 16.875H9.75C10.3023 16.875 10.75 16.4273 10.75 15.875V13.875M5.25 3.75V12.875C5.25 13.4273 5.69772 13.875 6.25 13.875H10.75M5.25 3.75V1.75C5.25 1.19772 5.69772 0.75 6.25 0.75H10.75M10.75 13.875H13.875C14.4273 13.875 14.875 13.4273 14.875 12.875V4.875M10.75 0.75L14.875 4.875M10.75 0.75V3.875C10.75 4.42728 11.1977 4.875 11.75 4.875H14.875" stroke="#6A7187" stroke-width="1.5"/>
</svg>