<svg width="10" height="19" viewBox="0 0 10 19" fill="none" xmlns="http://www.w3.org/2000/svg">
<path d="M9.87609 12.54C9.87609 13.2067 9.70943 13.8333 9.37609 14.42C9.05609 15.0067 8.57609 15.5 7.93609 15.9C7.30943 16.3 6.56276 16.54 5.69609 16.62V18.24H4.39609V16.62C3.14276 16.5 2.12943 16.1067 1.35609 15.44C0.582761 14.7733 0.196094 13.8933 0.196094 12.8H2.63609C2.67609 13.32 2.84276 13.7533 3.13609 14.1C3.42943 14.4333 3.84943 14.6467 4.39609 14.74V10.34C3.50276 10.1133 2.77609 9.88667 2.21609 9.66C1.65609 9.42 1.17609 9.04667 0.776094 8.54C0.389427 8.03333 0.196094 7.34 0.196094 6.46C0.196094 5.35333 0.582761 4.44 1.35609 3.72C2.12943 2.98667 3.14276 2.56 4.39609 2.44V0.819999H5.69609V2.44C6.86943 2.54667 7.80943 2.92 8.51609 3.56C9.23609 4.18667 9.64276 5.05333 9.73609 6.16H7.29609C7.25609 5.74667 7.09609 5.38 6.81609 5.06C6.53609 4.72667 6.16276 4.5 5.69609 4.38V8.7C6.58943 8.91333 7.31609 9.14 7.87609 9.38C8.43609 9.60667 8.90943 9.97333 9.29609 10.48C9.68276 10.9733 9.87609 11.66 9.87609 12.54ZM2.51609 6.34C2.51609 6.88667 2.67609 7.31333 2.99609 7.62C3.32943 7.92667 3.79609 8.17333 4.39609 8.36V4.32C3.82276 4.38667 3.36276 4.59333 3.01609 4.94C2.68276 5.28667 2.51609 5.75333 2.51609 6.34ZM5.69609 14.74C6.28276 14.6467 6.74276 14.4133 7.07609 14.04C7.40943 13.6533 7.57609 13.1933 7.57609 12.66C7.57609 12.1267 7.40943 11.7133 7.07609 11.42C6.75609 11.1133 6.29609 10.8667 5.69609 10.68V14.74Z" fill="#3D4151"/>
</svg>
