<svg width="24" height="23" viewBox="0 0 24 23" fill="none" xmlns="http://www.w3.org/2000/svg">
<path d="M12.4019 20.7412L12.4019 2.25907" stroke="white" stroke-width="1.5" stroke-linecap="round"/>
<path d="M16.1463 18.0572C16.4392 17.7643 16.4392 17.2894 16.1463 16.9965C15.8534 16.7036 15.3785 16.7036 15.0856 16.9965L16.1463 18.0572ZM12.4017 20.7411L11.8714 21.2715C12.1642 21.5644 12.6391 21.5644 12.932 21.2715L12.4017 20.7411ZM9.71773 16.9965C9.42483 16.7036 8.94996 16.7036 8.65707 16.9965C8.36417 17.2894 8.36417 17.7643 8.65707 18.0572L9.71773 16.9965ZM15.0856 16.9965L11.8714 20.2108L12.932 21.2715L16.1463 18.0572L15.0856 16.9965ZM12.932 20.2108L9.71773 16.9965L8.65707 18.0572L11.8714 21.2715L12.932 20.2108Z" fill="white"/>
</svg>
