<svg width="20" height="20" viewBox="0 0 20 20" fill="none" xmlns="http://www.w3.org/2000/svg">
<path d="M3.2684 10.6171L2.90505 10.2736C2.84607 10.336 2.80415 10.4126 2.78333 10.4958L3.2684 10.6171ZM1.14251 19.1207L0.657441 18.9994C0.614844 19.1698 0.664768 19.35 0.788958 19.4742C0.913149 19.5984 1.09339 19.6483 1.26378 19.6057L1.14251 19.1207ZM9.64608 16.9948L9.76734 17.4799C9.85526 17.4579 9.93555 17.4124 9.99963 17.3483L9.64608 16.9948ZM12.3591 1L12.7127 0.646447C12.6172 0.550954 12.4871 0.49815 12.3521 0.500049C12.2171 0.501949 12.0885 0.55839 11.9958 0.65653L12.3591 1ZM19 7.64087L19.3535 7.99442C19.4473 7.90065 19.5 7.77347 19.5 7.64087C19.5 7.50826 19.4473 7.38108 19.3535 7.28731L19 7.64087ZM2.78333 10.4958L0.657441 18.9994L1.62758 19.2419L3.75347 10.7384L2.78333 10.4958ZM1.26378 19.6057L9.76734 17.4799L9.52481 16.5097L1.02124 18.6356L1.26378 19.6057ZM3.63176 10.9606L12.7225 1.34347L11.9958 0.65653L2.90505 10.2736L3.63176 10.9606ZM12.0056 1.35355L18.6464 7.99442L19.3535 7.28731L12.7127 0.646447L12.0056 1.35355ZM18.6464 7.28731L9.29252 16.6412L9.99963 17.3483L19.3535 7.99442L18.6464 7.28731ZM15.2373 3.89384L5.88333 13.6729L6.60597 14.3642L15.9599 4.58506L15.2373 3.89384Z" fill="white"/>
</svg>
