<?xml version="1.0" encoding="UTF-8" standalone="no"?>
<svg
   width="4"
   height="20"
   viewBox="0 0 4 20"
   fill="none"
   version="1.1"
   id="svg315"
   xmlns="http://www.w3.org/2000/svg"
   xmlns:svg="http://www.w3.org/2000/svg">
  <defs
     id="defs319" />
  <path
     id="circle328"
     d="M 2,0 A 2,2 0 0 0 0,2 2,2 0 0 0 2,4 2,2 0 0 0 4,2 2,2 0 0 0 2,0 Z M 2,8 A 2,2 0 0 0 0,10 2,2 0 0 0 2,12 2,2 0 0 0 4,10 2,2 0 0 0 2,8 Z m 0,8 a 2,2 0 0 0 -2,2 2,2 0 0 0 2,2 2,2 0 0 0 2,-2 2,2 0 0 0 -2,-2 z" />
</svg>
