<svg width="100" height="101" viewBox="0 0 100 101" fill="none" xmlns="http://www.w3.org/2000/svg">
<path fill-rule="evenodd" clip-rule="evenodd" d="M5.07812 27.9414V16.7109C5.07812 10.5723 10.0724 5.57812 16.2109 5.57812H27.4414C28.8437 5.57812 29.9805 4.44131 29.9805 3.03906C29.9805 1.63682 28.8437 0.5 27.4414 0.5H16.2109C7.27226 0.5 0 7.77217 0 16.7109V27.9414C0 29.3437 1.13682 30.4805 2.53906 30.4805C3.94131 30.4805 5.07812 29.3437 5.07812 27.9414ZM27.4414 95.4219C28.8437 95.4219 29.9805 96.5587 29.9805 97.9609C29.9805 99.3632 28.8437 100.5 27.4414 100.5H16.2109C7.27226 100.5 0 93.2277 0 84.2891V73.0586C0 71.6563 1.13682 70.5195 2.53906 70.5195C3.94131 70.5195 5.07812 71.6563 5.07812 73.0586V84.2891C5.07812 90.4276 10.0724 95.4219 16.2109 95.4219H27.4414ZM100 73.0586V84.2891C100 93.2277 92.7277 100.5 83.7891 100.5H72.5586C71.1563 100.5 70.0195 99.3632 70.0195 97.9609C70.0195 96.5587 71.1563 95.4219 72.5586 95.4219H83.7891C89.9276 95.4219 94.9219 90.4276 94.9219 84.2891V73.0586C94.9219 71.6563 96.0587 70.5195 97.4609 70.5195C98.8632 70.5195 100 71.6563 100 73.0586ZM100 16.7109V27.9414C100 29.3437 98.8632 30.4805 97.4609 30.4805C96.0587 30.4805 94.9219 29.3437 94.9219 27.9414V16.7109C94.9219 10.5723 89.9276 5.57812 83.7891 5.57812H72.5586C71.1563 5.57812 70.0195 4.44131 70.0195 3.03906C70.0195 1.63682 71.1563 0.5 72.5586 0.5H83.7891C92.7277 0.5 100 7.77217 100 16.7109ZM67.5223 74.4098C68.5921 73.4217 68.6582 71.7535 67.6701 70.6838C66.6819 69.6141 65.0138 69.548 63.9441 70.5359C60.1378 74.052 55.1856 75.9883 50 75.9883C44.8143 75.9883 39.8622 74.052 36.0558 70.5359C34.9859 69.548 33.3181 69.6142 32.3299 70.6838C31.3418 71.7535 31.4079 73.4217 32.4776 74.4098C37.2613 78.8283 43.4841 81.2617 50 81.2617C56.5159 81.2617 62.7387 78.8283 67.5223 74.4098ZM55.5234 38.6367V57.3867C55.5234 61.1022 52.5007 64.125 48.7852 64.125H46.6367C45.1805 64.125 44 62.9445 44 61.4883C44 60.032 45.1805 58.8516 46.6367 58.8516H48.7852C49.5929 58.8516 50.25 58.1944 50.25 57.3867V38.6367C50.25 37.1805 51.4305 36 52.8867 36C54.343 36 55.5234 37.1805 55.5234 38.6367ZM73.4375 45.5684V38.0488C73.4375 36.6735 72.3226 35.5586 70.9473 35.5586C69.572 35.5586 68.457 36.6735 68.457 38.0488V45.5684C68.457 46.9436 69.572 48.0586 70.9473 48.0586C72.3226 48.0586 73.4375 46.9436 73.4375 45.5684ZM27.1484 45.5684C27.1484 46.9436 28.2634 48.0586 29.6387 48.0586C31.014 48.0586 32.1289 46.9436 32.1289 45.5684V38.0488C32.1289 36.6735 31.014 35.5586 29.6387 35.5586C28.2634 35.5586 27.1484 36.6735 27.1484 38.0488V45.5684Z" fill="white"/>
</svg>
