<?xml version="1.0" encoding="UTF-8"?>
<svg width="28" height="28" fill="none" version="1.1" viewBox="0 0 28 28" xmlns="http://www.w3.org/2000/svg" xmlns:cc="http://creativecommons.org/ns#" xmlns:dc="http://purl.org/dc/elements/1.1/" xmlns:rdf="http://www.w3.org/1999/02/22-rdf-syntax-ns#">
 <metadata>
  <rdf:RDF>
   <cc:Work rdf:about="">
    <dc:format>image/svg+xml</dc:format>
    <dc:type rdf:resource="http://purl.org/dc/dcmitype/StillImage"/>
    <dc:title/>
   </cc:Work>
  </rdf:RDF>
 </metadata>
 <g transform="matrix(.92308 0 0 .92308 2 2.0004)" clip-path="url(#clip0)">
  <path d="m0.81376-8.4801e-4c-0.23167 0.044062-0.44032 0.16858-0.58908 0.35156-0.14876 0.18298-0.22807 0.41265-0.22392 0.64844v3c0 0.26522 0.10536 0.51957 0.29289 0.70711 0.18754 0.18754 0.44189 0.29289 0.7071 0.29289 0.26522 0 0.51958-0.10535 0.70711-0.29289 0.18754-0.18754 0.29289-0.44189 0.29289-0.70711v-2h2c0.26522 0 0.51958-0.10535 0.70711-0.29289 0.18754-0.18754 0.29289-0.44189 0.29289-0.70711 0-0.26522-0.10535-0.51957-0.29289-0.70711-0.18753-0.18754-0.44189-0.29289-0.70711-0.29289h-3c-0.031311-0.0014735-0.062679-0.0014735-0.093995 0-0.031316-0.0014735-0.062684-0.0014735-0.094 0zm20.906 0c-0.2653 0.037263-0.5048 0.17836-0.666 0.39224-0.1612 0.21388-0.2308 0.48304-0.1935 0.74826 0.0372 0.26522 0.1783 0.50477 0.3922 0.66596 0.2139 0.16118 0.483 0.2308 0.7483 0.19354h2v2c0 0.26522 0.1053 0.51957 0.2928 0.70711 0.1876 0.18754 0.4419 0.29289 0.7072 0.29289 0.2652 0 0.5195-0.10535 0.7071-0.29289 0.1875-0.18754 0.2929-0.44189 0.2929-0.70711v-3c0-0.26522-0.1054-0.51957-0.2929-0.70711-0.1876-0.18754-0.4419-0.29289-0.7071-0.29289h-3c-0.0314-0.0014735-0.0627-0.0014735-0.094 0-0.031-0.0014408-0.0621-0.0014408-0.093 0-0.0314-0.0014676-0.0627-0.0014676-0.094 0zm-8.719 1c-8.199 0-9.15 8.008-8.969 11.813-0.618 0.441-1.031 1.156-1.031 2.187h-2c-0.031311-0.0015-0.062679-0.0015-0.093995 0-0.031316-0.0015-0.062684-0.0015-0.094 0-0.26522 0.0249-0.50967 0.1541-0.67958 0.3593-0.16991 0.2052-0.25136 0.4694-0.22642 0.7347 0.02493 0.2652 0.1542 0.5096 0.35936 0.6795 0.20516 0.1699 0.46942 0.2514 0.73463 0.2265h24c0.2652 0 0.5195-0.1054 0.7071-0.2929 0.1875-0.1876 0.2929-0.4419 0.2929-0.7071 0-0.2653-0.1054-0.5196-0.2929-0.7072-0.1876-0.1875-0.4419-0.2928-0.7071-0.2928h-2c0-0.982-0.376-1.746-1.031-2.219 0.173-3.817-0.793-11.781-8.969-11.781zm-3 7c0 3.16 9 1.827 9 4v2.375l1.125-0.125c0.015-1e-3 0.04 0 0.094 0 0.71 0 0.781 0.344 0.781 0.75h-3.094c0.054-0.154 0.094-0.327 0.094-0.5 0-0.3979-0.1581-0.7794-0.4394-1.0607s-0.6628-0.4393-1.0606-0.4393c-0.3979 0-0.7794 0.158-1.0607 0.4393s-0.4393 0.6628-0.4393 1.0607c0 0.173 0.04 0.346 0.094 0.5h-4.188c0.054-0.154 0.094-0.327 0.094-0.5 0-0.3979-0.1581-0.7794-0.4394-1.0607s-0.66282-0.4393-1.0606-0.4393c-0.39783 0-0.77936 0.158-1.0607 0.4393-0.2813 0.2813-0.43933 0.6628-0.43933 1.0607 0 0.173 0.04 0.346 0.094 0.5h-3.094c0-0.275 0.00301-0.75 0.906-0.75l1.094 0.125v-2.375c0-2.723 1.824-1.115 3-4zm-4.875 10c1.94 4.639 4.594 7 7.875 7 3.282 0 5.936-2.36 7.875-7h-2.188c-1.54 3.315-3.454 5-5.687 5s-4.146-1.685-5.688-5h-2.186zm-4.219 2.969c-0.04229 0.0076-0.084043 0.0179-0.125 0.031-0.22577 0.0506-0.427 0.1779-0.56941 0.3602-0.14241 0.1824-0.21719 0.4085-0.21159 0.6398v3c0 0.2652 0.10536 0.5195 0.29289 0.7071 0.18754 0.1875 0.44189 0.2929 0.7071 0.2929h3c0.26522 0 0.51958-0.1054 0.70711-0.2929 0.18754-0.1876 0.29289-0.4419 0.29289-0.7071 0-0.2653-0.10535-0.5196-0.29289-0.7072-0.18753-0.1875-0.44189-0.2928-0.70711-0.2928h-2v-2c0.00505-0.1423-0.0203-0.2839-0.07437-0.4155s-0.1356-0.2502-0.23915-0.3478c-0.10356-0.0976-0.22674-0.1719-0.36133-0.2181-0.1346-0.0462-0.27749-0.0631-0.41914-0.0496zm24 0c-0.0423 0.0076-0.0841 0.0179-0.125 0.031-0.2258 0.0506-0.427 0.1779-0.5695 0.3602-0.1424 0.1824-0.2171 0.4085-0.2115 0.6398v2h-2c-0.2653 0-0.5196 0.1053-0.7072 0.2928-0.1875 0.1876-0.2928 0.4419-0.2928 0.7072 0 0.2652 0.1053 0.5195 0.2928 0.7071 0.1876 0.1875 0.4419 0.2929 0.7072 0.2929h3c0.2652 0 0.5195-0.1054 0.7071-0.2929 0.1875-0.1876 0.2929-0.4419 0.2929-0.7071v-3c5e-3 -0.1423-0.0204-0.2839-0.0744-0.4155-0.0541-0.1316-0.1356-0.2502-0.2392-0.3478-0.1035-0.0976-0.2267-0.1719-0.3613-0.2181s-0.2775-0.0631-0.4191-0.0496z" fill="#000"/>
 </g>
 <defs>
  <clipPath id="clip0">
   <rect width="26" height="26" fill="#fff"/>
  </clipPath>
 </defs>
</svg>
