<?xml version="1.0" encoding="UTF-8" standalone="no"?>
<svg
   width="100"
   height="101"
   viewBox="0 0 100 101"
   fill="none"
   version="1.1"
   id="svg410"
   xmlns="http://www.w3.org/2000/svg"
   xmlns:svg="http://www.w3.org/2000/svg">
  <defs
     id="defs414" />
  <path
     id="path419"
     d="M 16.210938,0.5 C 7.2722975,0.5 0,7.7722075 0,16.710938 v 11.230468 c 0,1.4023 1.1368225,2.539063 2.5390625,2.539063 1.40225,0 2.5390625,-1.136763 2.5390625,-2.539063 V 16.710938 c 0,-6.138601 4.994312,-11.132813 11.132813,-11.132813 h 11.230468 c 1.4023,0 2.539063,-1.1368125 2.539063,-2.5390625 C 29.980469,1.6368225 28.843706,0.5 27.441406,0.5 Z m 56.347656,0 c -1.4023,0 -2.539063,1.1368225 -2.539063,2.5390625 0,1.40225 1.136763,2.5390625 2.539063,2.5390625 h 11.230468 c 6.138501,0 11.132813,4.994212 11.132813,11.132813 v 11.230468 c 0,1.4023 1.136863,2.539063 2.539063,2.539063 1.4023,0 2.539062,-1.136763 2.539062,-2.539063 V 16.710938 C 100,7.7722075 92.727662,0.5 83.789062,0.5 Z M 29.638672,35.558594 c -1.3753,0 -2.490235,1.114934 -2.490234,2.490234 v 7.519531 c 0,1.3752 1.114934,2.490235 2.490234,2.490235 1.3753,0 2.490234,-1.115035 2.490234,-2.490235 v -7.519531 c 0,-1.3753 -1.114934,-2.490234 -2.490234,-2.490234 z m 41.308594,0 c -1.3753,0 -2.490235,1.114934 -2.490235,2.490234 v 7.519531 c 0,1.3752 1.114935,2.490235 2.490235,2.490235 1.3753,0 2.490234,-1.115035 2.490234,-2.490235 v -7.519531 c 0,-1.3753 -1.114934,-2.490234 -2.490234,-2.490234 z M 52.886719,36 C 51.430519,36 50.25,37.180519 50.25,38.636719 v 18.75 c 0,0.8077 -0.657144,1.464843 -1.464844,1.464843 h -2.148437 c -1.4562,0 -2.636719,1.180419 -2.636719,2.636719 0,1.4562 1.180519,2.636719 2.636719,2.636719 h 2.148437 c 3.7155,0 6.738282,-3.022781 6.738282,-6.738281 v -18.75 C 55.523438,37.180519 54.343019,36 52.886719,36 Z m -18.72461,33.837891 c -0.674212,0.02676 -1.337931,0.310903 -1.832031,0.845703 -0.9881,1.0697 -0.921262,2.738462 0.148438,3.726562 4.7837,4.4185 11.005584,6.851563 17.521484,6.851563 6.5159,0 12.737884,-2.433063 17.521484,-6.851563 1.0698,-0.9881 1.136538,-2.656862 0.148438,-3.726562 -0.9882,-1.0697 -2.656863,-1.136338 -3.726563,-0.148438 -3.8063,3.5161 -8.757759,5.453125 -13.943359,5.453125 -5.1857,0 -10.136959,-1.937025 -13.943359,-5.453125 -0.53495,-0.49395 -1.220319,-0.724028 -1.894532,-0.697265 z M 2.5390625,70.519531 C 1.1368225,70.519531 0,71.656294 0,73.058594 V 84.289062 C 0,93.227663 7.2722975,100.5 16.210938,100.5 h 11.230468 c 1.4023,0 2.539063,-1.136762 2.539063,-2.539062 0,-1.402201 -1.136763,-2.539063 -2.539063,-2.539063 H 16.210938 c -6.138501,0 -11.132813,-4.994313 -11.132813,-11.132813 V 73.058594 c 0,-1.4023 -1.1368125,-2.539063 -2.5390625,-2.539063 z m 94.9218755,0 c -1.402201,0 -2.539063,1.136763 -2.539063,2.539063 v 11.230468 c 0,6.138501 -4.994313,11.132813 -11.132813,11.132813 H 72.558594 c -1.4023,0 -2.539063,1.136863 -2.539063,2.539063 0,1.4023 1.136763,2.539062 2.539063,2.539062 H 83.789062 C 92.727663,100.5 100,93.227662 100,84.289062 V 73.058594 c 0,-1.4023 -1.136762,-2.539063 -2.539062,-2.539063 z" />
</svg>
