<svg width="28" height="29" viewBox="0 0 28 29" fill="none" xmlns="http://www.w3.org/2000/svg">
<path d="M25.1132 16.5703L25.5 16.4804V16.0833V13.1028V12.7054L25.1128 12.6157L21.8912 11.8695C21.7823 11.5476 21.6546 11.2354 21.5101 10.9332L23.2568 8.13473L23.4673 7.79751L23.1862 7.51643L21.0784 5.40882L20.7974 5.12776L20.4602 5.33822L17.7347 7.03926C17.4016 6.86679 17.0553 6.71577 16.6979 6.58838L15.9774 3.48082L15.8877 3.09375H15.4903H12.5097H12.1123L12.0226 3.48088L11.3295 6.47189C10.912 6.60049 10.5086 6.76042 10.1219 6.94869L7.5397 5.33814L7.20266 5.12792L6.92167 5.4087L4.81393 7.51489L4.53263 7.79598L4.7432 8.13333L6.31132 10.6455C6.09312 11.0611 5.90852 11.4972 5.76063 11.9498L2.88711 12.6157L2.5 12.7054V13.1028V16.0833V16.4806L2.88711 16.5704L5.76063 17.2363C5.90852 17.6888 6.09312 18.125 6.31132 18.5406L4.7432 21.0528L4.5327 21.39L4.81381 21.6711L6.92155 23.7787L7.20254 24.0597L7.5397 23.8494L10.1219 22.2388C10.5086 22.4271 10.912 22.587 11.3295 22.7156L12.0226 25.7066L12.1123 26.0938H12.5097H15.4903H15.8878L15.9774 25.7065L16.6966 22.6005C17.0541 22.473 17.3998 22.3219 17.733 22.1495L20.4588 23.8507L20.796 24.0612L21.077 23.7801L23.1848 21.6725L23.4659 21.3914L23.2554 21.0542L21.5087 18.2557C21.6532 17.9532 21.7808 17.6405 21.8897 17.3193L25.1132 16.5703Z" stroke="white" stroke-miterlimit="10"/>
<circle cx="14.0008" cy="14.5926" r="4.42857" stroke="white"/>
</svg>
