<?xml version="1.0" encoding="UTF-8" standalone="no"?>
<svg
   width="40"
   height="41"
   viewBox="0 0 40 41"
   fill="none"
   version="1.1"
   id="svg511"
   xmlns="http://www.w3.org/2000/svg"
   xmlns:svg="http://www.w3.org/2000/svg">
  <defs
     id="defs515" />
  <path
     id="circle501"
     style="color:#000000;fill:#ffffff;-inkscape-stroke:none"
     d="m 20,0.5 c -11.0397616,0 -20,8.9602384 -20,20 0,11.039762 8.9602384,20 20,20 11.039762,0 20,-8.960238 20,-20 0,-11.0397616 -8.960238,-20 -20,-20 z m 0,1 c 10.499322,0 19,8.500678 19,19 0,10.499322 -8.500678,19 -19,19 C 9.5006779,39.5 1,30.999322 1,20.5 1,10.000678 9.5006779,1.5 20,1.5 Z m 0.002,5.8007812 L 6.8027344,20.5 7.15625,20.853516 20.001953,33.697266 26.246094,27.453125 26.953125,26.746094 33.199219,20.5 26.953125,14.253906 26.246094,13.546875 Z m 0,1.4140626 5.537109,5.5390622 -10.607421,10.605469 0.708984,0.707031 L 20,21.207031 25.539062,26.746094 20.001953,32.283203 8.2167969,20.5 13.753906,14.960938 17.761719,18.96875 18.46875,18.261719 14.462891,14.253906 Z M 26.246094,14.960938 31.785156,20.5 26.246094,26.039062 20.707031,20.5 Z" />
</svg>
