<svg width="43" height="42" viewBox="0 0 43 42" fill="none" xmlns="http://www.w3.org/2000/svg">
<path d="M24.2025 18.2983C22.7691 16.8655 20.8253 16.0605 18.7985 16.0605C16.7718 16.0605 14.828 16.8655 13.3945 18.2983L7.98877 23.7023C6.55531 25.1358 5.75 27.08 5.75 29.1072C5.75 31.1344 6.55531 33.0786 7.98877 34.5121C9.42223 35.9455 11.3664 36.7508 13.3936 36.7508C15.4209 36.7508 17.3651 35.9455 18.7985 34.5121L21.5005 31.81" stroke="#F5F7FD" stroke-width="3.5" stroke-linecap="round" stroke-linejoin="round"/>
<path d="M18.7998 23.7025C20.2332 25.1354 22.177 25.9403 24.2038 25.9403C26.2306 25.9403 28.1744 25.1354 29.6078 23.7025L35.0136 18.2985C36.447 16.8651 37.2523 14.9209 37.2523 12.8936C37.2523 10.8664 36.447 8.92223 35.0136 7.48877C33.5801 6.05531 31.6359 5.25 29.6087 5.25C27.5815 5.25 25.6373 6.05531 24.2038 7.48877L21.5018 10.1908" stroke="#F5F7FD" stroke-width="3.5" stroke-linecap="round" stroke-linejoin="round"/>
</svg>
