<svg width="48" height="48" viewBox="0 0 48 48" fill="none" xmlns="http://www.w3.org/2000/svg">
<circle cx="24" cy="24" r="23.5" stroke="white"/>
<path fill-rule="evenodd" clip-rule="evenodd" d="M16.075 21.9772L16.0749 21.9771L16.0748 21.9771L16.0725 21.9747L16.0565 21.9578C16.041 21.9412 16.0162 21.914 15.9845 21.8768C15.9208 21.8021 15.8302 21.689 15.7303 21.5424C15.5283 21.2461 15.3013 20.833 15.1688 20.3414C14.9237 19.4319 14.9492 18.0899 16.5339 16.5052C18.114 14.9251 19.4644 14.9053 20.384 15.1561C20.8802 15.2914 21.2959 15.5205 21.5911 15.7212C21.737 15.8204 21.8486 15.9094 21.9204 15.9704C21.9562 16.0008 21.9817 16.0238 21.9962 16.0373L22.0093 16.0496L22.9239 16.9642C23.3145 17.3548 23.9476 17.3548 24.3382 16.9642C24.7287 16.5737 24.7287 15.9406 24.3382 15.55L23.42 14.6319L22.7181 15.3337C23.42 14.6319 23.4196 14.6315 23.4192 14.6311L23.4183 14.6302L23.4162 14.6281L23.4112 14.6232L23.3975 14.6099C23.3868 14.5995 23.3728 14.5862 23.3556 14.5703C23.3213 14.5385 23.2741 14.4961 23.2149 14.4458C23.0966 14.3454 22.9284 14.212 22.7157 14.0673C22.2936 13.7803 21.6764 13.4355 20.9102 13.2265C19.3049 12.7887 17.2122 12.9985 15.1197 15.091C13.0318 17.1788 12.8054 19.2575 13.2377 20.8618C13.6448 22.3724 14.5964 23.3271 14.6606 23.3912L14.6606 23.3913L18.2245 26.9555L18.2245 26.9555C19.3274 28.0584 20.7437 28.6388 22.2501 28.5671C23.7486 28.4958 25.2359 27.7853 26.5248 26.4964C26.9153 26.1059 26.9153 25.4728 26.5248 25.0822C26.1343 24.6917 25.5011 24.6917 25.1106 25.0822C24.1041 26.0887 23.0665 26.526 22.1549 26.5694C21.2511 26.6124 20.3721 26.2747 19.6387 25.5413L19.6387 25.5413L16.075 21.9772ZM31.9453 25.9842L31.9454 25.9843L31.9455 25.9843L31.9477 25.9866L31.9638 26.0035C31.9793 26.0202 32.004 26.0474 32.0358 26.0846C32.0995 26.1592 32.19 26.2724 32.2899 26.4189C32.492 26.7153 32.719 27.1283 32.8515 27.62C33.0966 28.5295 33.0711 29.8715 31.4864 31.4562C29.9063 33.0363 28.5559 33.0561 27.6363 32.8053C27.1401 32.67 26.7244 32.4409 26.4292 32.2402C26.2833 32.1409 26.1717 32.052 26.0999 31.991C26.0641 31.9606 26.0386 31.9375 26.024 31.924L26.0109 31.9117L25.0963 30.9971C24.7058 30.6066 24.0727 30.6066 23.6821 30.9971C23.2916 31.3876 23.2916 32.0208 23.6821 32.4113L24.6003 33.3295L25.3004 32.6293C24.6003 33.3295 24.6007 33.3299 24.6011 33.3303L24.602 33.3312L24.6041 33.3332L24.6091 33.3382L24.6228 33.3515C24.6335 33.3619 24.6475 33.3752 24.6647 33.3911C24.699 33.4229 24.7461 33.4653 24.8054 33.5156C24.9237 33.616 25.0918 33.7494 25.3046 33.894C25.7267 34.1811 26.3438 34.5258 27.1101 34.7348C28.7154 35.1726 30.8081 34.9629 32.9006 32.8704C34.9885 30.7825 35.2149 28.7038 34.7826 27.0996C34.3755 25.589 33.4239 24.6343 33.3597 24.5701L33.3597 24.5701L29.7958 21.0059L29.7958 21.0058C28.6929 19.903 27.2766 19.3225 25.7702 19.3942C24.2716 19.4656 22.7844 20.176 21.4955 21.4649C21.105 21.8554 21.105 22.4886 21.4955 22.8791C21.886 23.2697 22.5192 23.2697 22.9097 22.8791C23.9162 21.8726 24.9538 21.4354 25.8654 21.392C26.7691 21.3489 27.6481 21.6866 28.3815 22.42L28.3816 22.4201L31.9453 25.9842Z" fill="white"/>
</svg>
