<?xml version="1.0" encoding="UTF-8" standalone="no"?>
<svg
   width="48"
   height="48"
   viewBox="0 0 48 48"
   fill="none"
   version="1.1"
   id="svg671"
   xmlns="http://www.w3.org/2000/svg"
   xmlns:svg="http://www.w3.org/2000/svg">
  <defs
     id="defs675" />
  <path
     id="circle639"
     style="color:#000000;fill:#ffffff;-inkscape-stroke:none"
     d="M 24,0 C 10.751102,0 0,10.751102 0,24 0,37.248898 10.751102,48 24,48 37.248898,48 48,37.248898 48,24 48,10.751102 37.248898,0 24,0 Z m 0,1 C 36.708459,1 47,11.291541 47,24 47,36.708459 36.708459,47 24,47 11.291541,47 1,36.708459 1,24 1,11.291541 11.291541,1 24,1 Z M 13,13 v 0.611328 6.722656 h 7.333984 V 13 Z m 8.554688,0 v 1.222656 h 1.222656 V 13 Z m 3.666015,0 v 3.666016 h 1.222656 V 13 Z m 2.445313,0 v 0.611328 6.722656 H 35 V 13 Z m -13.44336,1.222656 h 4.888672 v 4.888672 h -4.888672 z m 14.666016,0 h 4.888672 v 4.888672 h -4.888672 z m -13.44336,1.220703 v 2.445313 h 2.445313 v -2.445313 z m 14.666016,0 v 2.445313 h 2.445313 v -2.445313 z m -8.55664,0.002 v 4.888672 h 1.222656 V 17.888672 H 24 v -2.44336 h -1.222656 z m 3.666015,2.44336 v 1.222656 h 1.222656 v -1.222656 z m 0,1.222656 H 24 v 3.666016 h 1.220703 V 24 H 22.779297 V 22.777344 H 21.556641 V 24 h -1.222657 v 1.222656 H 16.667969 V 24 h 1.220703 v -1.222656 h 2.445312 v -1.222656 h -3.666015 v 1.222656 H 14.222656 V 24 25.222656 h 1.222656 v 1.220703 h 7.332032 v 3.667969 H 24 v -3.667969 h -1.220703 v -1.220703 h 2.443359 V 24 h 1.220703 V 21.554688 H 25.220703 Z M 26.443359,24 v 2.443359 h 1.222657 V 24 Z m 1.222657,2.443359 v 1.222657 h -2.445313 v 1.222656 h 1.222656 v 1.222656 h 1.222657 v -1.222656 h 1.222656 v -1.222656 -1.222657 z m 1.222656,0 h 1.222656 v 0.611329 0.611328 3.666015 h 1.222656 2.44336 v -1.220703 h -2.44336 v -2.445312 -0.611328 -0.611329 h 1.220704 v -1.220703 h -2.44336 V 24 h -1.222656 v 1.222656 z m 3.666016,0 v 2.445313 h 1.222656 v -2.445313 z m 1.222656,0 H 35 v -1.220703 h -1.222656 z m 0,4.888672 v 2.445313 h -2.44336 V 35 H 33.777344 35 v -3.667969 z m -6.111328,-1.220703 v 2.44336 h -1.220704 v 1.222656 h -1.220703 v -1.222656 h -1.222656 v 1.222656 H 21.556641 V 35 h 7.332031 v -1.222656 h 2.443359 v -1.222656 h -2.443359 v -2.44336 z m -3.664063,2.44336 v -1.220704 h -1.222656 v 1.220704 z M 24,30.111328 v 1.220703 h 1.220703 V 30.111328 Z M 14.222656,25.222656 H 13 v 1.220703 h 1.222656 z m 0,-2.445312 V 21.554688 H 13 v 1.222656 z m 13.44336,-1.222656 v 1.222656 h 1.222656 v -1.222656 z m 2.445312,0 v 1.222656 h 2.44336 V 24 H 35 V 22.777344 21.554688 Z M 13,27.666016 V 28.277344 35 h 7.333984 v -7.333984 z m 1.222656,1.222656 h 4.888672 v 4.888672 h -4.888672 z m 1.222656,1.222656 v 2.44336 h 2.445313 v -2.44336 z" />
</svg>
