<svg width="48" height="48" viewBox="0 0 48 48" fill="none" xmlns="http://www.w3.org/2000/svg">
<circle cx="24" cy="24" r="23.5" stroke="white"/>
<rect x="13.6111" y="28.2776" width="6.11097" height="6.11097" stroke="white" stroke-width="1.22219"/>
<rect x="13.6111" y="13.6111" width="6.11097" height="6.11097" stroke="white" stroke-width="1.22219"/>
<rect x="28.2771" y="13.6111" width="6.11097" height="6.11097" stroke="white" stroke-width="1.22219"/>
<path d="M13 22.1665H14.2222" stroke="white" stroke-width="1.22219"/>
<path d="M16.668 22.1665H20.3346" stroke="white" stroke-width="1.22219"/>
<path d="M22.7793 31.9443H24.0015M24.0015 33.1665H25.2237" stroke="white" stroke-width="1.22219"/>
<path d="M33.7773 25.833H34.9995" stroke="white" stroke-width="1.22219"/>
<path d="M28.8887 24.6108H30.1109" stroke="white" stroke-width="1.22219"/>
<path d="M13 25.833H14.2222" stroke="white" stroke-width="1.22219"/>
<path d="M14.2227 23.3887H17.8892M14.2227 24.6109H16.667M21.5558 34.3885H28.889M26.4446 33.1663H28.889M30.1112 22.1665L35 22.1665M32.5556 23.3887H35M28.889 25.8331H32.5556M30.1112 27.0553H31.3334M33.1667 26.4442V28.8886M30.7223 27.0553V31.333" stroke="white" stroke-width="1.22219"/>
<path d="M21.5563 23.3887H22.7785M20.3341 24.6109H25.2229M33.7782 34.3884H31.3338M34.3893 31.3329V34.9995M15.4453 25.8331H22.7785" stroke="white" stroke-width="1.22219"/>
<path d="M22.1658 15.4444V20.3332M21.5547 13.6111H22.7769M25.8324 13V16.6666M23.388 15.4444V17.8888M27.6657 22.1665H28.8879M24.6102 31.3329V30.1107M25.2213 28.2774H28.8879M31.3322 30.7218H33.7766M24.6102 19.111V22.7776M25.8324 21.5554V23.9998M23.388 30.1107V26.4441M26.4435 29.4996H27.6657M27.0546 26.4441V23.9998M27.6657 27.0552H28.8879M28.8879 33.1662H31.3322M28.2768 32.5551V30.1107M25.2213 18.4999H26.4435" stroke="white" stroke-width="1.22219"/>
<rect x="15.4453" y="15.4443" width="2.44439" height="2.44439" fill="white"/>
<rect x="15.4453" y="30.1108" width="2.44439" height="2.44439" fill="white"/>
<rect x="30.1113" y="15.4443" width="2.44439" height="2.44439" fill="white"/>
</svg>
