<svg width="23" height="18" viewBox="0 0 23 18" fill="none" xmlns="http://www.w3.org/2000/svg">
<path fill-rule="evenodd" clip-rule="evenodd" d="M0.497733 10.0593C-0.0873263 9.47429 -0.08026 8.51865 0.497733 7.94065L7.2283 1.21008C7.62047 0.817916 8.38731 0.5 8.94587 0.5H19.4405C21.3723 0.5 22.9384 2.06885 22.9384 4.0018V13.9982C22.9384 15.9322 21.3615 17.5 19.4405 17.5H8.94587C8.38945 17.5 7.61556 17.1772 7.2283 16.7899L0.497733 10.0593ZM15.0811 8.97769L17.9052 6.15356C18.1985 5.86025 18.2024 5.3815 17.9095 5.0886C17.6145 4.79367 17.1398 4.79763 16.8445 5.0929L14.0204 7.91703L11.1963 5.0929C10.9029 4.79959 10.4242 4.79571 10.1313 5.0886C9.83637 5.38354 9.84033 5.85829 10.1356 6.15356L12.9597 8.97769L10.1356 11.8018C9.84229 12.0951 9.83841 12.5739 10.1313 12.8668C10.4262 13.1617 10.901 13.1577 11.1963 12.8625L14.0204 10.0384L16.8445 12.8625C17.1378 13.1558 17.6166 13.1597 17.9095 12.8668C18.2044 12.5718 18.2004 12.0971 17.9052 11.8018L15.0811 8.97769ZM2.14811 9.70972C1.75614 9.31775 1.75735 8.68104 2.14811 8.29028L8.08163 2.35675C8.27866 2.15972 8.66403 2 8.93213 2H19.4356C20.5417 2 21.4384 2.89706 21.4384 4.00586V13.9941C21.4384 15.1019 20.5448 16 19.4356 16H8.93213C8.65944 16 8.27903 15.8406 8.08163 15.6432L2.14811 9.70972Z" fill="black"/>
</svg>
