<svg width="25" height="24" viewBox="0 0 25 24" fill="none" xmlns="http://www.w3.org/2000/svg">
<path d="M7.875 10L6.93796 11.1713L9.375 13.1209L9.375 10L7.875 10ZM5.375 8L4.43796 6.8287L2.97383 8L4.43796 9.1713L5.375 8ZM7.875 6L9.375 6L9.375 2.87906L6.93796 4.8287L7.875 6ZM8.81204 8.8287L6.31204 6.8287L4.43796 9.1713L6.93796 11.1713L8.81204 8.8287ZM6.31204 9.1713L8.81204 7.1713L6.93796 4.8287L4.43796 6.8287L6.31204 9.1713ZM9.375 10L9.375 6L6.375 6L6.375 10L9.375 10Z" fill="#464B5D"/>
<path d="M15.8753 18L16.8124 19.1713L14.3755 21.121L14.3753 18.0001L15.8753 18ZM18.375 16L19.312 14.8287L20.7761 15.9999L19.3121 17.1713L18.375 16ZM15.875 14L14.375 14.0001L14.3748 10.8789L16.812 12.8287L15.875 14ZM14.9382 16.8287L17.4379 14.8287L19.3121 17.1713L16.8124 19.1713L14.9382 16.8287ZM17.438 17.1713L14.938 15.1713L16.812 12.8287L19.312 14.8287L17.438 17.1713ZM14.3753 18.0001L14.375 14.0001L17.375 13.9999L17.3753 17.9999L14.3753 18.0001Z" fill="#464B5D"/>
<path d="M7.875 8L18.375 8" stroke="#464B5D" stroke-width="3" stroke-linecap="square"/>
<path d="M15.875 16.5L5.375 16.5" stroke="#464B5D" stroke-width="3" stroke-linecap="square"/>
</svg>
