<svg width="151" height="150" viewBox="0 0 151 150" fill="none" xmlns="http://www.w3.org/2000/svg">
<path fill-rule="evenodd" clip-rule="evenodd" d="M60.7601 50.3407C65.1828 44.1237 72.431 40 80.6046 40C94.054 40 105 51.1485 105 64.7234C105 82.2777 98.9439 111.421 79.649 132.355C78.9004 133.168 77.6352 133.219 76.8229 132.471C76.0107 131.722 75.9592 130.457 76.7078 129.645C95.1121 109.677 101 81.6329 101 64.7234C101 53.3026 91.7903 44 80.6046 44C73.8087 44 67.7413 47.4276 64.0195 52.6593C63.3793 53.5594 62.1306 53.77 61.2305 53.1297C60.3304 52.4894 60.1199 51.2407 60.7601 50.3407ZM59.5779 56.5743C60.6415 56.8725 61.2619 57.9765 60.9636 59.04C60.4722 60.7925 60.209 62.6354 60.209 64.534C60.209 65.3974 60.0616 73.7623 57.1325 83.1656C54.213 92.5378 48.4011 103.332 36.8015 108.405C35.7895 108.847 34.6103 108.386 34.1677 107.374C33.7251 106.362 34.1867 105.183 35.1987 104.74C45.2482 100.345 50.5407 90.8771 53.3135 81.9759C56.0765 73.1058 56.209 65.1856 56.209 64.534C56.209 62.2642 56.5238 60.0581 57.1122 57.96C57.4105 56.8964 58.5144 56.276 59.5779 56.5743Z" fill="white"/>
<path fill-rule="evenodd" clip-rule="evenodd" d="M80.6047 55C75.4366 55 71.2093 59.2235 71.2093 64.3636C71.2093 65.3247 71.0588 74.8719 67.6301 85.9538C64.2068 97.0186 57.4195 109.907 43.9392 117.076C42.9639 117.595 41.7529 117.225 41.2342 116.25C40.7156 115.275 41.0857 114.063 42.0609 113.545C54.2201 107.078 60.5375 95.345 63.8089 84.7715C67.075 74.2152 67.2093 65.1071 67.2093 64.3636C67.2093 57.0038 73.2379 51 80.6047 51C87.9714 51 94 57.0038 94 64.3636C94 81.5369 87.4554 111.399 65.5469 129.54C64.6961 130.245 63.4354 130.126 62.7309 129.276C62.0264 128.425 62.145 127.164 62.9958 126.46C83.6299 109.374 90 80.9025 90 64.3636C90 59.2235 85.7728 55 80.6047 55Z" fill="white"/>
<path fill-rule="evenodd" clip-rule="evenodd" d="M67.2093 64.3636C67.2093 57.0038 73.2379 51 80.6047 51C87.9714 51 94 57.0038 94 64.3636C94 81.5448 87.4515 111.207 65.555 129.534C64.7079 130.243 63.4466 130.131 62.7376 129.284C62.0287 128.437 62.1407 127.175 62.9877 126.466C83.6339 109.186 90 80.8945 90 64.3636C90 59.2235 85.7728 55 80.6047 55C75.4366 55 71.2093 59.2235 71.2093 64.3636C71.2093 65.3247 71.0588 74.8719 67.6301 85.9538C64.2068 97.0186 57.4195 109.907 43.9392 117.076C42.9639 117.595 41.7529 117.225 41.2342 116.25C40.7156 115.275 41.0857 114.063 42.0609 113.545C54.2201 107.078 60.5375 95.345 63.8089 84.7715C67.075 74.2152 67.2093 65.1071 67.2093 64.3636Z" fill="white"/>
<path fill-rule="evenodd" clip-rule="evenodd" d="M81.0001 63C82.1047 63 83.0001 63.8954 83.0001 65H81.0001C83.0001 65 83.0001 65.0018 83.0001 65.0018L83.0001 65.0128L83 65.0399C82.9998 65.0628 82.9996 65.0951 82.9991 65.1367C82.9982 65.2198 82.9963 65.3399 82.9927 65.4951C82.9855 65.8055 82.9712 66.2564 82.943 66.833C82.8866 67.986 82.7743 69.6431 82.5507 71.685C82.1039 75.7654 81.2108 81.4011 79.4225 87.6314C75.8559 100.057 68.6598 115.074 54.1007 124.67C53.1785 125.278 51.938 125.023 51.3302 124.101C50.7223 123.178 50.9772 121.938 51.8995 121.33C65.3404 112.471 72.1443 98.4889 75.5777 86.5277C77.2894 80.5648 78.1462 75.1607 78.5745 71.2496C78.7884 69.2958 78.8949 67.7192 78.9478 66.6375C78.9743 66.0968 78.9873 65.6801 78.9938 65.4022C78.997 65.2632 78.9986 65.159 78.9994 65.0913L79 65.0175C79 65.0175 79.0002 67 79.0001 65" fill="white"/>
<path d="M83.0001 65C83.0001 63.8954 82.1047 63 81.0001 63C81.0001 63 79 63 79.0001 65C79.0002 67 79 65.0175 79 65.0175L78.9994 65.0913C78.9986 65.159 78.997 65.2632 78.9938 65.4022C78.9873 65.6801 78.9743 66.0968 78.9478 66.6375C78.8949 67.7192 78.7884 69.2958 78.5745 71.2496C78.1462 75.1607 77.2894 80.5648 75.5777 86.5277C72.1443 98.4889 65.3404 112.471 51.8995 121.33C50.9772 121.938 50.7223 123.178 51.3302 124.101C51.938 125.023 53.1785 125.278 54.1007 124.67C68.6598 115.074 75.8559 100.057 79.4225 87.6314C81.2108 81.4011 82.1039 75.7654 82.5507 71.685C82.7743 69.6431 82.8866 67.986 82.943 66.833C82.9712 66.2564 82.9855 65.8055 82.9927 65.4951C82.9963 65.3399 82.9982 65.2198 82.9991 65.1367C82.9996 65.0951 82.9998 65.0628 83 65.0399L83.0001 65.0128L83.0001 65.0018C83.0001 65.0018 83.0001 65 81.0001 65H83.0001Z" fill="white"/>
<path fill-rule="evenodd" clip-rule="evenodd" d="M41.9252 37.358C50.4625 25.0837 64.6458 17 80.717 17C106.735 17 128 38.3688 128 64.4784C128 79.3324 124.551 100.676 114.586 120.885C114.098 121.875 112.899 122.282 111.908 121.794C110.917 121.305 110.51 120.106 110.999 119.115C120.656 99.5305 124 78.8065 124 64.4784C124 40.5617 104.51 21 80.717 21C66.0216 21 53.0373 28.3871 45.209 39.642C44.5783 40.5488 43.3319 40.7726 42.4251 40.1419C41.5183 39.5112 41.2945 38.2648 41.9252 37.358ZM39.6781 45.1536C40.6978 45.5781 41.1804 46.7489 40.7559 47.7686C38.6558 52.8133 37.4779 58.3333 37.4339 64.1146L35.434 64.0994H37.434C37.434 64.0527 37.4825 65.0655 37.3888 66.5497C37.2944 68.0435 37.0559 70.094 36.4767 72.383C35.3221 76.9454 32.771 82.6075 27.1543 86.577C26.2523 87.2145 25.0043 87 24.3668 86.098C23.7293 85.196 23.9437 83.9479 24.8457 83.3104C29.4178 80.0792 31.5836 75.4138 32.5989 71.4017C33.5533 67.6303 33.4509 64.6071 33.4356 64.1539C33.4346 64.1255 33.434 64.1072 33.434 64.0994L33.4341 64.0842C33.482 57.7751 34.7682 51.744 37.0631 46.2314C37.4876 45.2116 38.6584 44.7291 39.6781 45.1536Z" fill="white"/>
<path fill-rule="evenodd" clip-rule="evenodd" d="M80.9243 33C63.2798 33 49.0278 47.164 48.8485 64.6881C48.8449 65.1699 48.7121 71.78 46.5166 79.1157C44.3068 86.4989 39.829 95.1841 30.6866 98.5253C29.6491 98.9045 28.5007 98.3708 28.1216 97.3334C27.7424 96.2959 28.2761 95.1475 29.3135 94.7684C36.641 92.0904 40.5875 84.9751 42.6845 77.9688C43.7183 74.5148 44.2616 71.2153 44.5452 68.7499C44.6867 67.5201 44.7628 66.5051 44.8034 65.7914C44.8444 65.0706 44.8486 64.6691 44.8486 64.6699L44.8487 64.6495C45.0492 44.9309 61.0862 29 80.9243 29C90.3265 29 98.9182 32.6231 105.352 38.5263C106.166 39.2731 106.22 40.5383 105.473 41.3522C104.727 42.166 103.462 42.2204 102.648 41.4737C96.9188 36.2172 89.2812 33 80.9243 33ZM108.404 44.7978C109.328 44.1923 110.567 44.4504 111.173 45.3742C114.854 50.9904 117 57.6877 117 64.858C117 81.7313 111.809 108.118 96.1862 130.157C95.5475 131.058 94.2991 131.27 93.398 130.632C92.4969 129.993 92.2842 128.744 92.923 127.843C107.968 106.619 113 81.0902 113 64.858C113 58.4973 111.098 52.5575 107.827 47.5669C107.222 46.6431 107.48 45.4033 108.404 44.7978Z" fill="white"/>
</svg>
