<svg width="24" height="24" viewBox="0 0 24 24" fill="none" xmlns="http://www.w3.org/2000/svg">
<path d="M11.5886 2.55322L11.5886 21.4461" stroke="white" stroke-width="1.5" stroke-linecap="round"/>
<path d="M7.77411 5.30903C7.48122 5.60192 7.48122 6.07679 7.77411 6.36969C8.06701 6.66258 8.54188 6.66258 8.83477 6.36969L7.77411 5.30903ZM11.5902 2.55364L12.1205 2.02331C11.8276 1.73042 11.3527 1.73042 11.0598 2.02331L11.5902 2.55364ZM14.3455 6.36969C14.6384 6.66258 15.1133 6.66258 15.4062 6.36969C15.6991 6.07679 15.6991 5.60192 15.4062 5.30903L14.3455 6.36969ZM8.83477 6.36969L12.1205 3.08397L11.0598 2.02331L7.77411 5.30903L8.83477 6.36969ZM11.0598 3.08397L14.3455 6.36969L15.4062 5.30903L12.1205 2.02331L11.0598 3.08397Z" fill="white"/>
</svg>
