<svg width="25" height="24" viewBox="0 0 25 24" fill="none" xmlns="http://www.w3.org/2000/svg">
<path fill-rule="evenodd" clip-rule="evenodd" d="M19.1244 18.0925C20.5993 16.4896 21.5 14.35 21.5 12C21.5 7.02944 17.4706 3 12.5 3C7.52944 3 3.5 7.02944 3.5 12C3.5 14.2905 4.35566 16.3812 5.76476 17.9698C6.56477 16.6338 7.82586 15.5793 9.33139 14.957C8.01833 13.9855 7.16699 12.4256 7.16699 10.6668C7.16699 7.72131 9.55481 5.3335 12.5003 5.3335C15.4458 5.3335 17.8337 7.72131 17.8337 10.6668C17.8337 12.4634 16.9454 14.0525 15.584 15.0188C16.465 15.4224 17.252 15.9779 17.9099 16.6142C18.3717 17.0607 18.7833 17.5605 19.1244 18.0925ZM17.5925 19.4217C17.3242 18.9506 16.9647 18.4824 16.5195 18.0519C15.4634 17.0306 14.0359 16.333 12.5007 16.333C10.1089 16.333 8.15511 17.6009 7.2999 19.3466C8.76841 20.3879 10.5627 21 12.5 21C14.3902 21 16.1443 20.4173 17.5925 19.4217ZM12.5003 14.0002C14.3413 14.0002 15.8337 12.5078 15.8337 10.6668C15.8337 8.82588 14.3413 7.3335 12.5003 7.3335C10.6594 7.3335 9.16699 8.82588 9.16699 10.6668C9.16699 12.5078 10.6594 14.0002 12.5003 14.0002Z" fill="#464B5D"/>
</svg>
