<svg width="24" height="24" viewBox="0 0 24 24" fill="none" xmlns="http://www.w3.org/2000/svg">
<path fill-rule="evenodd" clip-rule="evenodd" d="M22 12C22 17.5228 17.5228 22 12 22C6.47715 22 2 17.5228 2 12C2 6.47715 6.47715 2 12 2C17.5228 2 22 6.47715 22 12ZM24 12C24 18.6274 18.6274 24 12 24C5.37258 24 0 18.6274 0 12C0 5.37258 5.37258 0 12 0C18.6274 0 24 5.37258 24 12ZM13 6.9C13 6.40294 12.6082 6 12.125 6C11.6418 6 11.25 6.40294 11.25 6.9C11.25 7.39706 11.6418 7.8 12.125 7.8C12.6082 7.8 13 7.39706 13 6.9ZM12.125 9.00015C12.6082 9.00015 13 9.37939 13 9.8472V17.1C13 17.5678 12.6082 18 12.125 18C11.6418 18 11.25 17.5678 11.25 17.1V9.8472C11.25 9.37939 11.6418 9.00015 12.125 9.00015Z" fill="#0049B8"/>
</svg>
