<svg width="24" height="23" viewBox="0 0 24 23" fill="none" xmlns="http://www.w3.org/2000/svg">
<path fill-rule="evenodd" clip-rule="evenodd" d="M13.5353 1.41726C12.8532 0.194246 11.1468 0.194247 10.4647 1.41726L0.239829 19.7503C-0.441903 20.9726 0.410924 22.5 1.77515 22.5H22.2249C23.5891 22.5 24.4419 20.9726 23.7602 19.7503L13.5353 1.41726ZM13 9.5V14.5C13 15.0523 12.5523 15.5 12 15.5C11.4477 15.5 11 15.0523 11 14.5V9.5C11 8.94771 11.4477 8.5 12 8.5C12.5523 8.5 13 8.94771 13 9.5ZM12 18.5C12.5523 18.5 13 18.0523 13 17.5C13 16.9477 12.5523 16.5 12 16.5C11.4477 16.5 11 16.9477 11 17.5C11 18.0523 11.4477 18.5 12 18.5Z" fill="#09090C"/>
</svg>
